<?xml version="1.0" encoding="UTF-8"?>
<svg version="1.1" xmlns="http://www.w3.org/2000/svg" width="150" height="150">
<path d="M0 0 C38.28 0 76.56 0 116 0 C116.0825 10.395 116.165 20.79 116.25 31.5 C116.28641602 34.74779297 116.32283203 37.99558594 116.36035156 41.34179688 C116.37205342 43.96744123 116.38224168 46.59309295 116.390625 49.21875 C116.40107849 49.87605103 116.41153198 50.53335205 116.42230225 51.21057129 C116.58135566 61.76570132 114.93839837 70.95184785 112 81 C111.34 81 110.68 81 110 81 C109.88527344 81.57234375 109.77054687 82.1446875 109.65234375 82.734375 C108.93817644 85.21471656 107.92692128 87.06368697 106.5625 89.25 C106.13066406 89.95640625 105.69882813 90.6628125 105.25390625 91.390625 C104.63322266 92.18726562 104.63322266 92.18726562 104 93 C103.34 93 102.68 93 102 93 C101.7525 93.61875 101.505 94.2375 101.25 94.875 C99.79371361 97.35068687 98.62187494 97.95125002 96 99 C96 99.66 96 100.32 96 101 C90.58823529 105 90.58823529 105 88 105 C88 105.66 88 106.32 88 107 C82.58823529 111 82.58823529 111 80 111 C80 111.66 80 112.32 80 113 C74.58823529 117 74.58823529 117 72 117 C72 117.66 72 118.32 72 119 C70.02 119.66 68.04 120.32 66 121 C66 121.66 66 122.32 66 123 C60.9347079 127.02920962 60.9347079 127.02920962 58 126.9375 C55.30492208 125.67418223 52.63803145 124.37897099 50 123 C50 122.34 50 121.68 50 121 C47.03 120.01 47.03 120.01 44 119 C44 118.34 44 117.68 44 117 C43.278125 116.7421875 42.55625 116.484375 41.8125 116.21875 C36.67739939 113.99353974 32.44827904 110.35297415 28 107 C26.88059382 106.17655903 25.76079419 105.3536527 24.640625 104.53125 C12.29315442 95.36948001 12.29315442 95.36948001 8 89 C8 88.34 8 87.68 8 87 C7.34 87 6.68 87 6 87 C-0.05716251 76.54437283 -0.82838575 68.32413172 -0.5859375 56.54296875 C-0.57708792 55.08680609 -0.57098407 53.63062416 -0.56762695 52.17443848 C-0.53649195 46.84516312 -0.45272575 41.51629948 -0.375 36.1875 C-0.25125 24.245625 -0.1275 12.30375 0 0 Z " fill="#FCFAFA" transform="translate(16,15)"/>
<path d="M0 0 C38.28 0 76.56 0 116 0 C116.0825 10.395 116.165 20.79 116.25 31.5 C116.28641602 34.74779297 116.32283203 37.99558594 116.36035156 41.34179688 C116.37205342 43.96744123 116.38224168 46.59309295 116.390625 49.21875 C116.40107849 49.87605103 116.41153198 50.53335205 116.42230225 51.21057129 C116.58135566 61.76570132 114.93839837 70.95184785 112 81 C111.34 81 110.68 81 110 81 C109.88527344 81.57234375 109.77054687 82.1446875 109.65234375 82.734375 C108.93817644 85.21471656 107.92692128 87.06368697 106.5625 89.25 C106.13066406 89.95640625 105.69882813 90.6628125 105.25390625 91.390625 C104.63322266 92.18726562 104.63322266 92.18726562 104 93 C103.34 93 102.68 93 102 93 C101.7525 93.61875 101.505 94.2375 101.25 94.875 C99.79371361 97.35068687 98.62187494 97.95125002 96 99 C96 99.66 96 100.32 96 101 C90.58823529 105 90.58823529 105 88 105 C88 105.66 88 106.32 88 107 C82.58823529 111 82.58823529 111 80 111 C80 111.66 80 112.32 80 113 C74.58823529 117 74.58823529 117 72 117 C72 117.66 72 118.32 72 119 C70.02 119.66 68.04 120.32 66 121 C66 121.66 66 122.32 66 123 C60.9347079 127.02920962 60.9347079 127.02920962 58 126.9375 C55.30492208 125.67418223 52.63803145 124.37897099 50 123 C50 122.34 50 121.68 50 121 C47.03 120.01 47.03 120.01 44 119 C44 118.34 44 117.68 44 117 C43.278125 116.7421875 42.55625 116.484375 41.8125 116.21875 C36.67739939 113.99353974 32.44827904 110.35297415 28 107 C26.88059382 106.17655903 25.76079419 105.3536527 24.640625 104.53125 C12.29315442 95.36948001 12.29315442 95.36948001 8 89 C8 88.34 8 87.68 8 87 C7.34 87 6.68 87 6 87 C-0.05716251 76.54437283 -0.82838575 68.32413172 -0.5859375 56.54296875 C-0.57708792 55.08680609 -0.57098407 53.63062416 -0.56762695 52.17443848 C-0.53649195 46.84516312 -0.45272575 41.51629948 -0.375 36.1875 C-0.25125 24.245625 -0.1275 12.30375 0 0 Z M10 9 C9.9175 18.85875 9.835 28.7175 9.75 38.875 C9.71358398 41.96858887 9.67716797 45.06217773 9.63964844 48.24951172 C9.62795612 50.72622994 9.61776558 53.20295589 9.609375 55.6796875 C9.58891113 56.94562744 9.56844727 58.21156738 9.54736328 59.51586914 C9.54182567 73.68937501 14.60143956 82.42534745 24.125 92.5 C28.27706697 96.54843801 32.70878295 99.70272649 37.6015625 102.796875 C40.1942202 104.44039319 42.67448102 106.19844101 45.1484375 108.015625 C46.2146936 108.78737061 46.2146936 108.78737061 47.30249023 109.57470703 C48.70524272 110.59328659 50.09841955 111.62521083 51.48071289 112.67138672 C55.12466127 115.42145729 55.12466127 115.42145729 59.4765625 115.671875 C63.0739798 113.28844682 66.52586668 110.76687762 69.9375 108.125 C74.54023327 104.59236998 79.15601231 101.20013095 84 98 C96.20585828 88.97585173 103.36511597 80.31962798 106 65 C106.26485018 60.65423146 106.233434 56.32120438 106.1953125 51.96875 C106.19329834 50.87594727 106.19128418 49.78314453 106.18920898 48.65722656 C106.1788051 44.60477454 106.15088284 40.55238272 106.125 36.5 C106.08375 27.425 106.0425 18.35 106 9 C74.32 9 42.64 9 10 9 Z " fill="#68A876" transform="translate(16,15)"/>
<path d="M0 0 C1.32 1.32 2.64 2.64 4 4 C4.66 2.68 5.32 1.36 6 0 C6.495 1.485 6.495 1.485 7 3 C7.474375 3.474375 7.94875 3.94875 8.4375 4.4375 C11.50945623 7.50945623 11.97786234 9.53510916 12.1875 13.9375 C12.11179189 17.05317996 11.75830867 19.9667653 11 23 C12.175625 23.12375 13.35125 23.2475 14.5625 23.375 C18.5210007 23.79168428 22.18401176 24.88968183 26 26 C26.029729 27.38505737 26.029729 27.38505737 26.06005859 28.7980957 C26.13817739 32.22561174 26.22486997 35.65268798 26.31738281 39.07983398 C26.35565347 40.56282212 26.39050978 42.04590248 26.421875 43.52905273 C26.467568 45.66163072 26.52555338 47.79357491 26.5859375 49.92578125 C26.6173584 51.20880127 26.6487793 52.49182129 26.68115234 53.8137207 C26.76379228 57.15387459 26.76379228 57.15387459 29 60 C33.05445642 60.43132515 34.54970958 60.30019361 38 58 C40.6875 57.875 40.6875 57.875 43 58 C45.10275875 61.41698297 45.64927702 64.02317827 45 68 C40.6974141 72.40502842 35.93717833 75.83682343 29.625 76.1875 C28.75875 76.125625 27.8925 76.06375 27 76 C26.67 75.34 26.34 74.68 26 74 C24.06213915 74.47770523 22.12472326 74.95721571 20.1875 75.4375 C19.10855469 75.70433594 18.02960938 75.97117187 16.91796875 76.24609375 C14.9259157 76.76077412 12.95188476 77.34937175 11 78 C7.7122924 78.22772829 4.419792 78.18515662 1.125 78.1875 C0.22652344 78.19974609 -0.67195313 78.21199219 -1.59765625 78.22460938 C-6.2312993 78.23487594 -9.75558872 78.06371966 -14 76 C-15.93125966 76.3574765 -15.93125966 76.3574765 -18 77 C-23.74375977 77.66274151 -26.81470873 76.32707706 -31.49609375 73.2890625 C-31.99238281 72.86367187 -32.48867188 72.43828125 -33 72 C-33 71.34 -33 70.68 -33 70 C-33.99 69.34 -34.98 68.68 -36 68 C-36.328125 65.90625 -36.328125 65.90625 -36.25 63.5 C-36.23453125 62.7059375 -36.2190625 61.911875 -36.203125 61.09375 C-36 59 -36 59 -35 57 C-30.25 58.875 -30.25 58.875 -28 60 C-23.73553292 60.45079626 -23.73553292 60.45079626 -20.125 58.5 C-19.75375 58.005 -19.3825 57.51 -19 57 C-18.01 57.66 -17.02 58.32 -16 59 C-16 59.66 -16 60.32 -16 61 C-14.02 61.66 -12.04 62.32 -10 63 C-10.33 62.01 -10.66 61.02 -11 60 C-9.783125 60.165 -8.56625 60.33 -7.3125 60.5 C2.71707795 61.55326289 11.11329627 61.50777573 20.63671875 57.875 C23 57 23 57 25 57 C25 56.34 25 55.68 25 55 C3.22 54.505 3.22 54.505 -19 54 C-19 44.76 -19 35.52 -19 26 C-15.535 25.505 -15.535 25.505 -12 25 C-12.66 25.33 -13.32 25.66 -14 26 C-14 28.31 -14 30.62 -14 33 C-10.04 33 -6.08 33 -2 33 C-3.32 33.66 -4.64 34.32 -6 35 C-4.68 35.33 -3.36 35.66 -2 36 C-2 37.32 -2 38.64 -2 40 C-7.445 40.495 -7.445 40.495 -13 41 C-13 41.99 -13 42.98 -13 44 C-11.515 43.505 -11.515 43.505 -10 43 C-8.60560336 42.93334624 -7.20830125 42.91461801 -5.8125 42.9375 C-4.554375 42.958125 -3.29625 42.97875 -2 43 C-2 43.33 -2 43.66 -2 44 C-7.445 44.495 -7.445 44.495 -13 45 C-13 45.66 -13 46.32 -13 47 C-7.555 46.505 -7.555 46.505 -2 46 C-2 46.66 -2 47.32 -2 48 C-6.95 48.495 -6.95 48.495 -12 49 C-9.03 49.33 -6.06 49.66 -3 50 C-3 50.33 -3 50.66 -3 51 C-1.35 51.33 0.3 51.66 2 52 C1.93941406 51.2886792 1.87882812 50.5773584 1.81640625 49.84448242 C1.5429732 46.62559697 1.27146422 43.40655206 1 40.1875 C0.90460938 39.06794922 0.80921875 37.94839844 0.7109375 36.79492188 C0.62070313 35.72177734 0.53046875 34.64863281 0.4375 33.54296875 C0.35371094 32.55321045 0.26992187 31.56345215 0.18359375 30.54370117 C0.05049311 28.69958478 0 26.84891348 0 25 C-3.63 25 -7.26 25 -11 25 C-7.23312136 23.11656068 -5.97041037 22.77942165 -2 23 C-2.495 21.9790625 -2.495 21.9790625 -3 20.9375 C-4.626762 16.15888661 -4.68351641 12.48590524 -2.5625 7.875 C-2.046875 6.92625 -1.53125 5.9775 -1 5 C-0.30092586 2.26427415 -0.30092586 2.26427415 0 0 Z " fill="#C1B2AF" transform="translate(69,28)"/>
<path d="M0 0 C5.49925421 -0.04940929 10.99837942 -0.08572395 16.49780273 -0.10986328 C18.36891938 -0.11992567 20.24002028 -0.13357691 22.11108398 -0.15087891 C24.79935591 -0.17511684 27.48742006 -0.18648063 30.17578125 -0.1953125 C31.01337479 -0.20563507 31.85096832 -0.21595764 32.71394348 -0.22659302 C38.65838488 -0.22774341 38.65838488 -0.22774341 42 2 C41.67 3.093125 41.34 4.18625 41 5.3125 C39.86913351 8.84578884 39.86913351 8.84578884 40 12 C39.34 12 38.68 12 38 12 C38.08378906 12.84304687 38.16757813 13.68609375 38.25390625 14.5546875 C38.40666016 16.19824219 38.40666016 16.19824219 38.5625 17.875 C38.71912109 19.51082031 38.71912109 19.51082031 38.87890625 21.1796875 C39 24 39 24 38 26 C34.35526801 26.89093449 31.57257469 27.23666047 28 26 C28 26.66 28 27.32 28 28 C26.02 28 24.04 28 22 28 C22.33 28.66 22.66 29.32 23 30 C23.14278551 32.15355878 23.2264059 34.31115985 23.28125 36.46875 C23.31863281 37.76167969 23.35601562 39.05460937 23.39453125 40.38671875 C23.44817694 42.44740226 23.50020514 44.50812307 23.55224609 46.56884766 C23.60398839 48.55641652 23.66128745 50.54383829 23.71875 52.53125 C23.74904297 53.72298828 23.77933594 54.91472656 23.81054688 56.14257812 C23.81120794 58.94496702 23.81120794 58.94496702 25 61 C22.82309041 63.67927334 21.63885629 64.88642555 18.1875 65.5 C14.02720127 64.84740412 11.53705978 63.26371826 8 61 C8 64.63 8 68.26 8 72 C9.65 72.66 11.3 73.32 13 74 C12.01 74.99 12.01 74.99 11 76 C15.96134717 79.24006346 18.90675733 80.57483421 25 80 C25.70125 79.79375 26.4025 79.5875 27.125 79.375 C29 79 29 79 31.25390625 79.90625 C34.1204278 81.04796555 36.77460525 81.61258402 39.8125 82.125 C40.78832031 82.29257813 41.76414063 82.46015625 42.76953125 82.6328125 C43.87361328 82.81457031 43.87361328 82.81457031 45 83 C40.8204355 85.78637633 38.85331323 84.79562512 34 84 C33.67 84.66 33.34 85.32 33 86 C33 85.34 33 84.68 33 84 C32.34 84 31.68 84 31 84 C31 84.99 31 85.98 31 87 C32.093125 86.814375 33.18625 86.62875 34.3125 86.4375 C38 86 38 86 41 87 C41.33 88.98 41.66 90.96 42 93 C41.34 93 40.68 93 40 93 C39.505 94.485 39.505 94.485 39 96 C39 95.34 39 94.68 39 94 C37.35 93.67 35.7 93.34 34 93 C34 93.99 34 94.98 34 96 C23.49162197 94.16165491 13.68852082 83.79957079 7 76 C2.45521935 69.43988675 -0.26047874 62.77537605 -0.22705078 54.71923828 C-0.22689972 53.4984256 -0.22674866 52.27761292 -0.22659302 51.01980591 C-0.21627045 49.71647308 -0.20594788 48.41314026 -0.1953125 47.0703125 C-0.19157802 45.71125497 -0.1887331 44.35219474 -0.18673706 42.99313354 C-0.17913483 39.43225551 -0.1595161 35.87154303 -0.1373291 32.31072998 C-0.11679679 28.67071776 -0.10771962 25.03067855 -0.09765625 21.390625 C-0.07626662 14.26034932 -0.04217234 7.13018552 0 0 Z " fill="#FDFDFC" transform="translate(26,24)"/>
<path d="M0 0 C33.99 0 67.98 0 103 0 C103.020625 9.57 103.04125 19.14 103.0625 29 C103.071604 32.00738281 103.08070801 35.01476563 103.09008789 38.11328125 C103.09301016 40.51302038 103.09555799 42.91276001 103.09765625 45.3125 C103.10277222 46.54548828 103.10788818 47.77847656 103.11315918 49.04882812 C103.11411565 58.52170495 102.84865688 66.46516581 98.5 75 C98.14470215 75.69988037 97.7894043 76.39976074 97.42333984 77.12084961 C94.25231553 83.05665832 90.51704459 87.10834734 85 91 C84.27554688 91.52980469 83.55109375 92.05960937 82.8046875 92.60546875 C81.22339668 93.73381355 79.62877701 94.84364091 78.0234375 95.9375 C74.02602112 98.6644197 70.07684333 101.45760943 66.125 104.25 C65.38701172 104.76981445 64.64902344 105.28962891 63.88867188 105.82519531 C63.18548828 106.32116211 62.48230469 106.81712891 61.7578125 107.328125 C60.76056152 108.02518555 60.76056152 108.02518555 59.74316406 108.73632812 C57.87627857 110.04905151 57.87627857 110.04905151 55.8046875 111.921875 C54 113 54 113 51.671875 112.95703125 C48.16819204 111.70205709 45.28332034 109.79544833 42.25 107.6875 C41.60675781 107.24817139 40.96351562 106.80884277 40.30078125 106.35620117 C38.9196349 105.40931401 37.54146786 104.45806931 36.16601562 103.50292969 C33.94602561 101.96254888 31.71550444 100.43825196 29.484375 98.9140625 C27.98881776 97.88131611 26.4940092 96.84748458 25 95.8125 C24.30680664 95.3383667 23.61361328 94.8642334 22.89941406 94.37573242 C16.12109215 89.62551189 10.40908192 84.42628306 6.25 77.1875 C5.69828125 76.25292969 5.1465625 75.31835938 4.578125 74.35546875 C0.2376356 65.12655687 -0.41582693 56.81339102 -0.29296875 46.6796875 C-0.28994751 45.49060791 -0.28692627 44.30152832 -0.28381348 43.07641602 C-0.26823254 38.67585448 -0.22634946 34.27541763 -0.1875 29.875 C-0.125625 20.01625 -0.06375 10.1575 0 0 Z M4 3 C3.9175 12.85875 3.835 22.7175 3.75 32.875 C3.71358398 35.96858887 3.67716797 39.06217773 3.63964844 42.24951172 C3.62795612 44.72622994 3.61776558 47.20295589 3.609375 49.6796875 C3.58891113 50.94562744 3.56844727 52.21156738 3.54736328 53.51586914 C3.54182567 67.68937501 8.60143956 76.42534745 18.125 86.5 C22.27706697 90.54843801 26.70878295 93.70272649 31.6015625 96.796875 C34.1942202 98.44039319 36.67448102 100.19844101 39.1484375 102.015625 C40.2146936 102.78737061 40.2146936 102.78737061 41.30249023 103.57470703 C42.70524272 104.59328659 44.09841955 105.62521083 45.48071289 106.67138672 C49.12466127 109.42145729 49.12466127 109.42145729 53.4765625 109.671875 C57.0739798 107.28844682 60.52586668 104.76687762 63.9375 102.125 C68.54023327 98.59236998 73.15601231 95.20013095 78 92 C90.20585828 82.97585173 97.36511597 74.31962798 100 59 C100.26485018 54.65423146 100.233434 50.32120438 100.1953125 45.96875 C100.19329834 44.87594727 100.19128418 43.78314453 100.18920898 42.65722656 C100.1788051 38.60477454 100.15088284 34.55238272 100.125 30.5 C100.08375 21.425 100.0425 12.35 100 3 C68.32 3 36.64 3 4 3 Z " fill="#C2585B" transform="translate(22,21)"/>
<path d="M0 0 C4.75 1.875 4.75 1.875 7 3 C11.26446708 3.45079626 11.26446708 3.45079626 14.875 1.5 C15.24625 1.005 15.6175 0.51 16 0 C16.99 0.66 17.98 1.32 19 2 C19 2.66 19 3.32 19 4 C19.62648438 4.20496094 20.25296875 4.40992187 20.8984375 4.62109375 C21.71570313 4.89050781 22.53296875 5.15992187 23.375 5.4375 C24.18710937 5.70433594 24.99921875 5.97117187 25.8359375 6.24609375 C28 7 28 7 30 8 C39.51353894 9.51632557 46.53372699 9.90226728 54.9609375 4.54296875 C57.07455856 3.01689855 57.07455856 3.01689855 59 1 C60.32 1 61.64 1 63 1 C63.495 1.99 63.495 1.99 64 3 C68.7897321 3.23428313 68.7897321 3.23428313 73 1 C75.6875 0.875 75.6875 0.875 78 1 C80.10275875 4.41698297 80.64927702 7.02317827 80 11 C75.6974141 15.40502842 70.93717833 18.83682343 64.625 19.1875 C63.75875 19.125625 62.8925 19.06375 62 19 C61.505 18.01 61.505 18.01 61 17 C59.06213915 17.47770523 57.12472326 17.95721571 55.1875 18.4375 C54.10855469 18.70433594 53.02960938 18.97117187 51.91796875 19.24609375 C49.9259157 19.76077412 47.95188476 20.34937175 46 21 C42.7122924 21.22772829 39.419792 21.18515662 36.125 21.1875 C34.77728516 21.20586914 34.77728516 21.20586914 33.40234375 21.22460938 C28.7687007 21.23487594 25.24441128 21.06371966 21 19 C19.06874034 19.3574765 19.06874034 19.3574765 17 20 C11.25624023 20.66274151 8.18529127 19.32707706 3.50390625 16.2890625 C2.75947266 15.65097656 2.75947266 15.65097656 2 15 C2 14.34 2 13.68 2 13 C1.01 12.34 0.02 11.68 -1 11 C-1.328125 8.90625 -1.328125 8.90625 -1.25 6.5 C-1.23453125 5.7059375 -1.2190625 4.911875 -1.203125 4.09375 C-1 2 -1 2 0 0 Z " fill="#DABEAD" transform="translate(34,85)"/>
<path d="M0 0 C35.97 0 71.94 0 109 0 C109.0825 10.1475 109.165 20.295 109.25 30.75 C109.28641602 33.92979492 109.32283203 37.10958984 109.36035156 40.38574219 C109.37204695 42.93944628 109.38223676 45.4931579 109.390625 48.046875 C109.41108887 49.3457666 109.43155273 50.6446582 109.45263672 51.98291016 C109.45826917 66.86948104 104.61840751 79.75152151 94.46484375 90.69921875 C90.03966987 94.82984857 85.06490096 98.15440421 80.08007812 101.56103516 C76.13394738 104.29090542 72.25983652 107.12144507 68.375 109.9375 C67.21991943 110.7713623 67.21991943 110.7713623 66.04150391 111.62207031 C61.91411901 114.58367104 61.91411901 114.58367104 57.91430664 117.7121582 C57.28258545 118.137146 56.65086426 118.56213379 56 119 C52.23938884 118.0702768 49.49419189 116.06643867 46.4375 113.75 C42.70556681 110.96884543 38.94558163 108.25279376 35.1171875 105.60546875 C34.24521729 105.00186523 33.37324707 104.39826172 32.47485352 103.77636719 C30.73819399 102.57686975 28.99920093 101.3807418 27.25756836 100.18847656 C15.47655307 92.02696465 3.4043113 81.99105577 0.44068909 67.21054077 C-0.01247371 63.90912562 -0.1201094 60.77535522 -0.11352539 57.44384766 C-0.11340454 56.14519775 -0.11328369 54.84654785 -0.11315918 53.50854492 C-0.10812512 52.14371695 -0.10295863 50.77888946 -0.09765625 49.4140625 C-0.09664917 48.16197998 -0.09564209 46.90989746 -0.09460449 45.61987305 C-0.08938325 40.95490601 -0.07542199 36.28995206 -0.0625 31.625 C-0.041875 21.18875 -0.02125 10.7525 0 0 Z M3 2 C2.9175 11.8175 2.835 21.635 2.75 31.75 C2.71358398 34.82538086 2.67716797 37.90076172 2.63964844 41.06933594 C2.62795233 43.54100855 2.6177627 46.01268894 2.609375 48.484375 C2.58891113 49.74008301 2.56844727 50.99579102 2.54736328 52.28955078 C2.5417444 66.66827843 7.23131466 78.80286904 16.9375 89.5 C21.68799922 93.95359302 27.24131837 97.46077179 32.64453125 101.0625 C35.60942113 103.04042969 38.51168676 105.08115537 41.38671875 107.1875 C42.09707275 107.70022461 42.80742676 108.21294922 43.53930664 108.74121094 C44.90090612 109.72619101 46.25350314 110.72377191 47.59545898 111.73535156 C50.71740433 113.96386544 52.27623135 115.00265117 56.19921875 114.98828125 C59.09015868 113.96818669 60.86062674 112.91331694 63.1875 110.9375 C66.46039644 108.25372492 69.7577495 105.66902536 73.1875 103.1875 C74.10273437 102.52234375 75.01796875 101.8571875 75.9609375 101.171875 C78.16245356 99.59855504 80.37256759 98.0488711 82.6015625 96.515625 C93.73689933 88.81972357 100.35611994 82.08454805 105 69 C106.22353187 61.7822122 106.12796787 54.61783945 106.09765625 47.3125 C106.09664917 46.16072266 106.09564209 45.00894531 106.09460449 43.82226562 C106.08939972 39.54816686 106.07543858 35.27408235 106.0625 31 C106.041875 21.43 106.02125 11.86 106 2 C72.01 2 38.02 2 3 2 Z " fill="#EBEDE6" transform="translate(19,19)"/>
<path d="M0 0 C18.81 0 37.62 0 57 0 C57 0.66 57 1.32 57 2 C41.82 1.67 26.64 1.34 11 1 C11.33 2.65 11.66 4.3 12 6 C12.99 6.66 13.98 7.32 15 8 C14.67 9.32 14.34 10.64 14 12 C13.67 10.68 13.34 9.36 13 8 C9.2236068 7.7018576 9.2236068 7.7018576 7 9 C6.34 7.68 5.68 6.36 5 5 C1.52276165 12.71512258 -0.04391112 18.56886661 2 27 C0.35 27.33 -1.3 27.66 -3 28 C-0.69 28.33 1.62 28.66 4 29 C5.01587978 32.04763934 5.19804406 34.34718967 5.31640625 37.54296875 C5.35830078 38.61611328 5.40019531 39.68925781 5.44335938 40.79492188 C5.48267578 41.91447266 5.52199219 43.03402344 5.5625 44.1875 C5.60568359 45.31865234 5.64886719 46.44980469 5.69335938 47.61523438 C5.79949099 50.41003354 5.90154385 53.20492162 6 56 C3.03 56 0.06 56 -3 56 C-3 55.67 -3 55.34 -3 55 C-4.98 54.67 -6.96 54.34 -9 54 C-8.67 53.34 -8.34 52.68 -8 52 C-4.7 52 -1.4 52 2 52 C2 51.34 2 50.68 2 50 C-3.445 50.495 -3.445 50.495 -9 51 C-9 50.34 -9 49.68 -9 49 C-7.515 48.505 -7.515 48.505 -6 48 C-6.99 48 -7.98 48 -9 48 C-9 47.01 -9 46.02 -9 45 C-6.24921116 44.08307039 -4.64051087 43.89113917 -1.8125 43.9375 C-0.554375 43.958125 0.70375 43.97875 2 44 C2 42.68 2 41.36 2 40 C0.35 40 -1.3 40 -3 40 C-2.67 39.34 -2.34 38.68 -2 38 C-4.64 37.67 -7.28 37.34 -10 37 C-10 34.69 -10 32.38 -10 30 C-11.65 30 -13.3 30 -15 30 C-15 39.24 -15 48.48 -15 58 C-12.24269531 57.98839844 -9.48539063 57.97679687 -6.64453125 57.96484375 C-3.96704219 57.9570397 -1.2895544 57.9509706 1.38793945 57.94506836 C3.24536712 57.94004697 5.10279085 57.93322859 6.96020508 57.92456055 C9.63363621 57.91239883 12.30701496 57.90674967 14.98046875 57.90234375 C15.80773972 57.89718246 16.63501068 57.89202118 17.48735046 57.88670349 C21.4622534 57.8863188 25.11956833 58.01019881 29 59 C29 59.66 29 60.32 29 61 C16.96307421 66.05298234 6.97519123 67.03532411 -6 65 C-5.67 65.99 -5.34 66.98 -5 68 C-9.43970742 66.60466338 -11.90515679 64.43871468 -15 61 C-16.4764236 58.0471528 -16.22272939 55.31551017 -16.31640625 52.0234375 C-16.33718735 51.33819 -16.35796844 50.6529425 -16.37937927 49.94692993 C-16.44480185 47.75638931 -16.50372554 45.56572811 -16.5625 43.375 C-16.60569218 41.8906125 -16.6493067 40.40623722 -16.69335938 38.921875 C-16.80047553 35.28137916 -16.90176362 31.64074749 -17 28 C-15.02 28 -13.04 28 -11 28 C-11 27.34 -11 26.68 -11 26 C-7.7 26 -4.4 26 -1 26 C-1 21.38 -1 16.76 -1 12 C-0.34 12 0.32 12 1 12 C0.814375 11.443125 0.62875 10.88625 0.4375 10.3125 C-0.07979538 7.5782244 0.27831562 5.67023219 1 3 C1.33 2.67 1.66 2.34 2 2 C1.34 1.34 0.68 0.68 0 0 Z " fill="#F4ECE7" transform="translate(65,24)"/>
<path d="M0 0 C38.28 0 76.56 0 116 0 C116 21.45 116 42.9 116 65 C115.67 65 115.34 65 115 65 C115 43.88 115 22.76 115 1 C77.38 1 39.76 1 1 1 C1 24.1 1 47.2 1 71 C1.66 71 2.32 71 3 71 C3.33 70.01 3.66 69.02 4 68 C4.2475 69.155 4.495 70.31 4.75 71.5 C9.2547428 88.99801455 22.84380013 98.37132571 37 108 C38.52814985 109.05351919 40.05551347 110.10817987 41.58203125 111.1640625 C44.29548391 113.03853676 47.0154613 114.90271256 49.7421875 116.7578125 C53 119 53 119 55.1484375 120.82421875 C57.58933416 122.37423962 58.93343598 122.14312065 61.75 121.6875 C62.54921875 121.56761719 63.3484375 121.44773437 64.171875 121.32421875 C65.07679687 121.16373047 65.07679687 121.16373047 66 121 C66 121.66 66 122.32 66 123 C60.9347079 127.02920962 60.9347079 127.02920962 58 126.9375 C55.30492208 125.67418223 52.63803145 124.37897099 50 123 C50 122.34 50 121.68 50 121 C47.03 120.01 47.03 120.01 44 119 C44 118.34 44 117.68 44 117 C43.278125 116.7421875 42.55625 116.484375 41.8125 116.21875 C36.67739939 113.99353974 32.44827904 110.35297415 28 107 C26.88059382 106.17655903 25.76079419 105.3536527 24.640625 104.53125 C12.29315442 95.36948001 12.29315442 95.36948001 8 89 C8 88.34 8 87.68 8 87 C7.34 87 6.68 87 6 87 C-0.05716251 76.54437283 -0.82838575 68.32413172 -0.5859375 56.54296875 C-0.57708792 55.08680609 -0.57098407 53.63062416 -0.56762695 52.17443848 C-0.53649195 46.84516312 -0.45272575 41.51629948 -0.375 36.1875 C-0.25125 24.245625 -0.1275 12.30375 0 0 Z " fill="#A1D0AE" transform="translate(16,15)"/>
<path d="M0 0 C-0.66 0 -1.32 0 -2 0 C-2 0.66 -2 1.32 -2 2 C-1.01 2 -0.02 2 1 2 C1 3.65 1 5.3 1 7 C4.63 7.66 8.26 8.32 12 9 C7.40624711 12.72316263 2.73000139 16.32749896 -2 19.875 C-2.7940625 20.49375 -3.588125 21.1125 -4.40625 21.75 C-5.1796875 22.32492188 -5.953125 22.89984375 -6.75 23.4921875 C-7.44609375 24.02183105 -8.1421875 24.55147461 -8.859375 25.09716797 C-11 26 -11 26 -13.6027832 25.26025391 C-16.28940044 23.84785772 -18.71722126 22.26395093 -21.1875 20.5 C-22.04730469 19.8915625 -22.90710937 19.283125 -23.79296875 18.65625 C-26 17 -26 17 -28 15 C-27.34 15 -26.68 15 -26 15 C-26 14.01 -26 13.02 -26 12 C-25.21625 12.20625 -24.4325 12.4125 -23.625 12.625 C-22.75875 12.74875 -21.8925 12.8725 -21 13 C-20.34 12.34 -19.68 11.68 -19 11 C-19 9.35 -19 7.7 -19 6 C-22.3 6 -25.6 6 -29 6 C-29 5.01 -29 4.02 -29 3 C-25.04 3 -21.08 3 -17 3 C-17.66 2.34 -18.32 1.68 -19 1 C-18.09636719 0.93941406 -17.19273438 0.87882812 -16.26171875 0.81640625 C-14.49248047 0.69072266 -14.49248047 0.69072266 -12.6875 0.5625 C-11.51574219 0.48128906 -10.34398437 0.40007812 -9.13671875 0.31640625 C-1.39388145 -0.46462715 -1.39388145 -0.46462715 0 0 Z " fill="#F2F4F1" transform="translate(86,105)"/>
<path d="M0 0 C1.77074917 -0.02705729 3.54161711 -0.04642195 5.3125 -0.0625 C6.29863281 -0.07410156 7.28476563 -0.08570313 8.30078125 -0.09765625 C11 0 11 0 14 1 C14 9.91 14 18.82 14 28 C10 27 10 27 8 25 C5.34462628 24.43479997 2.70855287 24.26211802 0 24 C0 24.66 0 25.32 0 26 C2.97 26 5.94 26 9 26 C9 26.33 9 26.66 9 27 C7.04233719 27.08082094 5.08373272 27.13910778 3.125 27.1875 C1.48917969 27.23970703 1.48917969 27.23970703 -0.1796875 27.29296875 C-1.11039062 27.19628906 -2.04109375 27.09960938 -3 27 C-5.06723714 23.89914429 -5.24497423 23.27068319 -5.1953125 19.76953125 C-5.18886719 18.96708984 -5.18242188 18.16464844 -5.17578125 17.33789062 C-5.15902344 16.50451172 -5.14226562 15.67113281 -5.125 14.8125 C-5.11597656 13.96751953 -5.10695313 13.12253906 -5.09765625 12.25195312 C-5.07410703 10.16784757 -5.03823647 8.08388783 -5 6 C-1.71480525 4.90493508 0.73663415 4.90039392 4.1875 4.9375 C5.81751953 4.95103516 5.81751953 4.95103516 7.48046875 4.96484375 C8.31191406 4.97644531 9.14335938 4.98804688 10 5 C6.37 4.67 2.74 4.34 -1 4 C-1 3.34 -1 2.68 -1 2 C2.63 2 6.26 2 10 2 C6.7 1.67 3.4 1.34 0 1 C0 0.67 0 0.34 0 0 Z " fill="#F7F7F6" transform="translate(77,53)"/>
<path d="M0 0 C1.65320356 3.14931538 2.916129 6.36805011 4.1875 9.6875 C9.53563312 22.56379703 19.03798204 29.8791765 30.3125 37.4375 C40.00682554 43.95993229 40.00682554 43.95993229 43.25 46.43359375 C44.5184375 47.39458984 44.5184375 47.39458984 45.8125 48.375 C46.49957031 48.91898438 47.18664062 49.46296875 47.89453125 50.0234375 C50.9471433 51.4393058 52.81030482 50.90956152 56 50 C58.21867545 48.69460558 58.21867545 48.69460558 60.1875 46.9375 C63.46039644 44.25372492 66.7577495 41.66902536 70.1875 39.1875 C71.10144531 38.52363281 72.01539062 37.85976562 72.95703125 37.17578125 C75.17250483 35.59167498 77.39645141 34.02862097 79.63671875 32.48046875 C80.25716064 32.04774658 80.87760254 31.61502441 81.5168457 31.16918945 C82.72007125 30.33115258 83.92798736 29.49979407 85.14135742 28.67651367 C90.66365972 24.81702823 94.71832446 20.46631798 97.3125 14.125 C97.63863281 13.34382813 97.96476562 12.56265625 98.30078125 11.7578125 C98.53152344 11.17773438 98.76226562 10.59765625 99 10 C99.33 10 99.66 10 100 10 C100.51292325 15.38569409 99.29515021 17.77544845 96 22 C95.56042969 22.59554687 95.12085937 23.19109375 94.66796875 23.8046875 C89.76998996 29.97986076 83.52152736 34.13402425 77.09619141 38.54492188 C73.14832514 41.28534616 69.26634845 44.1176994 65.375 46.9375 C64.60502686 47.49332764 63.83505371 48.04915527 63.04174805 48.62182617 C58.91425905 51.58357406 58.91425905 51.58357406 54.91430664 54.7121582 C54.28258545 55.137146 53.65086426 55.56213379 53 56 C49.23938884 55.0702768 46.49419189 53.06643867 43.4375 50.75 C39.70556681 47.96884543 35.94558163 45.25279376 32.1171875 42.60546875 C31.24521729 42.00186523 30.37324707 41.39826172 29.47485352 40.77636719 C27.73819399 39.57686975 25.99920093 38.3807418 24.25756836 37.18847656 C12.9986831 29.38867969 2.47431166 20.42293497 -2 7 C-2 6.01 -2 5.02 -2 4 C-1.34 4 -0.68 4 0 4 C0 2.68 0 1.36 0 0 Z " fill="#E0E5D6" transform="translate(22,82)"/>
<path d="M0 0 C35.97 0 71.94 0 109 0 C109 0.66 109 1.32 109 2 C73.69 2 38.38 2 2 2 C2 24.44 2 46.88 2 70 C1.34 70 0.68 70 0 70 C0 46.9 0 23.8 0 0 Z " fill="#499954" transform="translate(17,16)"/>
<path d="M0 0 C0.33 0 0.66 0 1 0 C1 8.91 1 17.82 1 27 C3.75730469 26.98839844 6.51460937 26.97679688 9.35546875 26.96484375 C12.03295781 26.9570397 14.7104456 26.9509706 17.38793945 26.94506836 C19.24536712 26.94004697 21.10279085 26.93322859 22.96020508 26.92456055 C25.63363621 26.91239883 28.30701496 26.90674967 30.98046875 26.90234375 C31.80773972 26.89718246 32.63501068 26.89202118 33.48735046 26.88670349 C37.4622534 26.8863188 41.11956833 27.01019881 45 28 C45 28.66 45 29.32 45 30 C32.96307421 35.05298234 22.97519123 36.03532411 10 34 C10.33 34.99 10.66 35.98 11 37 C6.56029258 35.60466338 4.09484321 33.43871468 1 30 C-0.40912096 27.18175808 -0.11183553 24.82748718 -0.09765625 21.6796875 C-0.09443359 20.42285156 -0.09121094 19.16601562 -0.08789062 17.87109375 C-0.07951172 16.55238281 -0.07113281 15.23367187 -0.0625 13.875 C-0.05748489 12.53515789 -0.05292201 11.195314 -0.04882812 9.85546875 C-0.03701086 6.57026794 -0.02053617 3.28515603 0 0 Z " fill="#E6C8C6" transform="translate(49,55)"/>
<path d="M0 0 C0.66 0 1.32 0 2 0 C2 0.66 2 1.32 2 2 C2.99 2.33 3.98 2.66 5 3 C5.33 3.99 5.66 4.98 6 6 C8.50447516 7.21869929 8.50447516 7.21869929 11 8 C10.34 8.66 9.68 9.32 9 10 C13.96134717 13.24006346 16.90675733 14.57483421 23 14 C23.70125 13.79375 24.4025 13.5875 25.125 13.375 C27 13 27 13 29.25390625 13.90625 C32.1204278 15.04796555 34.77460525 15.61258402 37.8125 16.125 C38.78832031 16.29257813 39.76414063 16.46015625 40.76953125 16.6328125 C41.50558594 16.75398438 42.24164063 16.87515625 43 17 C38.8204355 19.78637633 36.85331323 18.79562512 32 18 C31.67 18.66 31.34 19.32 31 20 C31 19.34 31 18.68 31 18 C30.34 18 29.68 18 29 18 C29 18.99 29 19.98 29 21 C30.093125 20.814375 31.18625 20.62875 32.3125 20.4375 C36 20 36 20 39 21 C39.495 23.97 39.495 23.97 40 27 C39.34 27 38.68 27 38 27 C37.505 28.485 37.505 28.485 37 30 C37 29.34 37 28.68 37 28 C35.35 27.67 33.7 27.34 32 27 C32 27.99 32 28.98 32 30 C21.50808915 28.16453569 11.66710625 17.80404656 5 10 C0 2.57608696 0 2.57608696 0 0 Z " fill="#F7F3F0" transform="translate(28,90)"/>
<path d="M0 0 C0.33 0.66 0.66 1.32 1 2 C5.7897321 2.23428313 5.7897321 2.23428313 10 0 C12.6875 -0.125 12.6875 -0.125 15 0 C16.87620422 3.16609462 17.09662822 5.35832401 17 9 C15.08850332 10.0098473 13.17058431 11.00754495 11.25 12 C10.18265625 12.556875 9.1153125 13.11375 8.015625 13.6875 C5 15 5 15 1 15 C1 14.01 1 13.02 1 12 C-0.258125 12.165 -1.51625 12.33 -2.8125 12.5 C-8.2144509 13.11073012 -13.57060338 13.09133564 -19 13 C-18 10 -18 10 -15.92578125 8.7890625 C-15.06339844 8.40492187 -14.20101562 8.02078125 -13.3125 7.625 C-10.0265233 6.07838149 -7.2348438 4.58303315 -4.5 2.1875 C-2 0 -2 0 0 0 Z " fill="#C2C3A2" transform="translate(97,86)"/>
<path d="M0 0 C0.99 0.495 0.99 0.495 2 1 C-6.88461538 8.82692308 -6.88461538 8.82692308 -13.375 9.1875 C-14.674375 9.0946875 -14.674375 9.0946875 -16 9 C-16.495 8.01 -16.495 8.01 -17 7 C-18.93786085 7.47770523 -20.87527674 7.95721571 -22.8125 8.4375 C-23.89144531 8.70433594 -24.97039062 8.97117187 -26.08203125 9.24609375 C-28.0740843 9.76077412 -30.04811524 10.34937175 -32 11 C-35.2877076 11.22772829 -38.580208 11.18515662 -41.875 11.1875 C-43.22271484 11.20586914 -43.22271484 11.20586914 -44.59765625 11.22460938 C-49.2312993 11.23487594 -52.75558872 11.06371966 -57 9 C-58.93125966 9.3574765 -58.93125966 9.3574765 -61 10 C-67.48603226 10.74838834 -70.93710951 8.68210217 -76 5 C-72.24353348 3.74784449 -68.95257353 4.10668855 -65.0703125 4.375 C-63.45313394 4.47410436 -61.83594612 4.57305756 -60.21875 4.671875 C-57.68695997 4.83352006 -55.15539757 4.9979822 -52.62402344 5.16601562 C-33.85461632 6.63809932 -33.85461632 6.63809932 -15.70703125 2.5234375 C-14 2 -14 2 -12 3 C-12.66 3.99 -13.32 4.98 -14 6 C-12.2273959 5.38003999 -10.45697333 4.75384007 -8.6875 4.125 C-7.20830078 3.60292969 -7.20830078 3.60292969 -5.69921875 3.0703125 C-2.84405623 2.04694076 -2.84405623 2.04694076 0 0 Z " fill="#D23835" transform="translate(112,95)"/>
<path d="M0 0 C2.31 0.33 4.62 0.66 7 1 C7.39242178 5.28412904 7.715264 9.56645436 7.9765625 13.86010742 C8.074769 15.31721401 8.19136593 16.77320853 8.32714844 18.22729492 C9.43260525 30.26769953 9.43260525 30.26769953 5.97167969 34.45263672 C3.39393353 36.28953457 0.86881994 37.67257902 -2 39 C-3.02996094 39.64195313 -4.05992188 40.28390625 -5.12109375 40.9453125 C-8.85951342 42.3148828 -12.16840092 42.20950711 -16.0625 41.875 C-17.10374023 41.82085937 -17.10374023 41.82085937 -18.16601562 41.765625 C-22.49798208 41.45296645 -25.572359 40.70841954 -29 38 C-29.495 36.515 -29.495 36.515 -30 35 C-28.783125 35.165 -27.56625 35.33 -26.3125 35.5 C-16.28292205 36.55326289 -7.88670373 36.50777573 1.63671875 32.875 C4 32 4 32 6 32 C6 31.34 6 30.68 6 30 C4.68 29.67 3.36 29.34 2 29 C2.33 19.76 2.66 10.52 3 1 C2.01 0.67 1.02 0.34 0 0 Z " fill="#BE4C49" transform="translate(88,53)"/>
<path d="M0 0 C0.66 0.33 1.32 0.66 2 1 C-0.76403428 7.30199816 -3.84074243 11.47378017 -9 16 C-9.62003906 16.58394531 -10.24007812 17.16789062 -10.87890625 17.76953125 C-15.56650923 21.81318069 -18.93369272 22.60057968 -25.09375 22.2109375 C-25.7228125 22.14132813 -26.351875 22.07171875 -27 22 C-27 21.34 -27 20.68 -27 20 C-27.66 20 -28.32 20 -29 20 C-29 18.35 -29 16.7 -29 15 C-29.99 15 -30.98 15 -32 15 C-32 14.34 -32 13.68 -32 13 C-31.34 13 -30.68 13 -30 13 C-30 12.34 -30 11.68 -30 11 C-25.545 10.01 -25.545 10.01 -21 9 C-20.67 9.99 -20.34 10.98 -20 12 C-13.02090212 11.06299149 -8.14986167 8.85346675 -3 4 C-2.34 3.01 -1.68 2.02 -1 1 C-0.67 0.67 -0.34 0.34 0 0 Z " fill="#FAFCFC" transform="translate(116,92)"/>
<path d="M0 0 C5.81683168 4.08415842 5.81683168 4.08415842 6.75 8.75 C6.87375 10.35875 6.87375 10.35875 7 12 C7.66 12.33 8.32 12.66 9 13 C9 15.64 9 18.28 9 21 C7.02 21.99 7.02 21.99 5 23 C4.67 20.69 4.34 18.38 4 16 C3.01 16.99 2.02 17.98 1 19 C0.67 18.01 0.34 17.02 0 16 C0.144375 16.5775 0.28875 17.155 0.4375 17.75 C0.95833333 19.83333333 1.47916667 21.91666667 2 24 C3.32 24 4.64 24 6 24 C5.67 25.98 5.34 27.96 5 30 C4.01 30 3.02 30 2 30 C2 34.62 2 39.24 2 44 C1.67 44 1.34 44 1 44 C0.67 37.73 0.34 31.46 0 25 C-3.63 25 -7.26 25 -11 25 C-7.23312136 23.11656068 -5.97041037 22.77942165 -2 23 C-2.33 22.319375 -2.66 21.63875 -3 20.9375 C-4.626762 16.15888661 -4.68351641 12.48590524 -2.5625 7.875 C-2.046875 6.92625 -1.53125 5.9775 -1 5 C-0.30092586 2.26427415 -0.30092586 2.26427415 0 0 Z " fill="#DCADAD" transform="translate(69,28)"/>
<path d="M0 0 C32.69454298 -0.08052843 65.32344789 -0.01105856 98 1 C98 1.33 98 1.66 98 2 C66.32 2 34.64 2 2 2 C2 20.48 2 38.96 2 58 C1.67 58 1.34 58 1 58 C0.505 29.29 0.505 29.29 0 0 Z " fill="#E15450" transform="translate(24,22)"/>
<path d="M0 0 C4.41666073 4.41666073 7.15456487 7.72799306 7.25 14.0625 C7.05265119 17.17074376 6.75293178 19.98827289 6 23 C8.64 23.33 11.28 23.66 14 24 C14 24.99 14 25.98 14 27 C11.37684968 28.31157516 9.76966564 27.89649988 6.875 27.5625 C5.96492188 27.46066406 5.05484375 27.35882813 4.1171875 27.25390625 C3.41851562 27.17011719 2.71984375 27.08632813 2 27 C2 27.66 2 28.32 2 29 C5.63 29 9.26 29 13 29 C13.33 29.66 13.66 30.32 14 31 C9.71 30.67 5.42 30.34 1 30 C1 32.64 1 35.28 1 38 C0.67 38 0.34 38 0 38 C0 35.69 0 33.38 0 31 C-0.66 31 -1.32 31 -2 31 C-2 37.27 -2 43.54 -2 50 C-2.33 50 -2.66 50 -3 50 C-3 43.4 -3 36.8 -3 30 C-2.01 30 -1.02 30 0 30 C0.33 28.02 0.66 26.04 1 24 C-0.32 24 -1.64 24 -3 24 C-4.8125 21.875 -4.8125 21.875 -6 19 C-5.6875 15.6875 -5.6875 15.6875 -5 13 C-4.34 14.32 -3.68 15.64 -3 17 C-2.01 16.01 -1.02 15.02 0 14 C-0.04125 14.94875 -0.0825 15.8975 -0.125 16.875 C-0.34973818 20.10244856 -0.34973818 20.10244856 2 22 C3.49743119 20.50256881 3.33202693 19.01175761 3.5625 16.9375 C3.706875 15.638125 3.85125 14.33875 4 13 C3.01 12.67 2.02 12.34 1 12 C0.67 8.04 0.34 4.08 0 0 Z " fill="#B37174" transform="translate(74,28)"/>
<path d="M0 0 C0.66 0.33 1.32 0.66 2 1 C2.33 8.92 2.66 16.84 3 25 C0.03 25 -2.94 25 -6 25 C-6 24.67 -6 24.34 -6 24 C-7.98 23.67 -9.96 23.34 -12 23 C-11.67 22.34 -11.34 21.68 -11 21 C-7.7 21 -4.4 21 -1 21 C-1 20.34 -1 19.68 -1 19 C-4.63 19.33 -8.26 19.66 -12 20 C-12 19.34 -12 18.68 -12 18 C-11.01 17.67 -10.02 17.34 -9 17 C-9.99 17 -10.98 17 -12 17 C-12 16.01 -12 15.02 -12 14 C-9.24921116 13.08307039 -7.64051087 12.89113917 -4.8125 12.9375 C-2.9253125 12.9684375 -2.9253125 12.9684375 -1 13 C-1 11.68 -1 10.36 -1 9 C-2.65 9 -4.3 9 -6 9 C-5.67 8.34 -5.34 7.68 -5 7 C-7.64 6.67 -10.28 6.34 -13 6 C-9.96474514 3.97649676 -8.80573798 3.67875982 -5.3125 3.375 C-4.50425781 3.30023438 -3.69601563 3.22546875 -2.86328125 3.1484375 C-2.24839844 3.09945312 -1.63351563 3.05046875 -1 3 C-0.67 2.01 -0.34 1.02 0 0 Z " fill="#F6F6F5" transform="translate(68,55)"/>
<path d="M0 0 C1.32 0.66 2.64 1.32 4 2 C4 2.66 4 3.32 4 4 C4.66 4.2475 5.32 4.495 6 4.75 C9.13242603 6.05517751 12.11839936 7.54353274 15.1328125 9.09765625 C17.14664322 10.12002876 17.14664322 10.12002876 20 11 C20 11.99 20 12.98 20 14 C13.42333552 17.28833224 3.8031434 14.65282443 -3 13 C-2.52060632 8.28596212 -2.03165952 4.33420699 0 0 Z " fill="#4F9F5B" transform="translate(49,85)"/>
<path d="M0 0 C14.52 0 29.04 0 44 0 C44.06292409 8.00767305 44.12302655 16.01444997 44.15525055 24.02215576 C44.17108744 27.75120631 44.19224783 31.48005205 44.22631836 35.20898438 C44.25893295 38.80107908 44.27685734 42.39297525 44.28463173 45.9852066 C44.29017152 47.35514704 44.30098952 48.72507671 44.31719017 50.09493256 C44.33898955 52.01467783 44.34022562 53.93462318 44.34057617 55.85449219 C44.34723801 56.94703308 44.35389984 58.03957397 44.36076355 59.16522217 C44 62 44 62 41 66 C41.33 44.55 41.66 23.1 42 1 C28.14 1 14.28 1 0 1 C0 0.67 0 0.34 0 0 Z " fill="#D53D34" transform="translate(80,22)"/>
<path d="M0 0 C8.58 0 17.16 0 26 0 C25.67 0.99 25.34 1.98 25 3 C21.37 3 17.74 3 14 3 C14 3.66 14 4.32 14 5 C15.32 5 16.64 5 18 5 C18 5.99 18 6.98 18 8 C17.34 8 16.68 8 16 8 C16 8.66 16 9.32 16 10 C19.63 9.67 23.26 9.34 27 9 C27 9.99 27 10.98 27 12 C23.0431867 12.39238918 19.08451397 12.76095842 15.125 13.125 C13.99707031 13.23714844 12.86914062 13.34929687 11.70703125 13.46484375 C10.63066406 13.56152344 9.55429688 13.65820312 8.4453125 13.7578125 C6.95281982 13.89920654 6.95281982 13.89920654 5.43017578 14.04345703 C3 14 3 14 1 12 C1.66 12 2.32 12 3 12 C3 11.01 3 10.02 3 9 C3.78375 9.20625 4.5675 9.4125 5.375 9.625 C6.24125 9.74875 7.1075 9.8725 8 10 C8.66 9.34 9.32 8.68 10 8 C10 6.35 10 4.7 10 3 C6.7 3 3.4 3 0 3 C0 2.01 0 1.02 0 0 Z " fill="#C7C1C0" transform="translate(57,108)"/>
<path d="M0 0 C-0.54745047 3.68723994 -1.82823778 5.12326596 -4.75 7.375 C-5.42546875 7.91898438 -6.1009375 8.46296875 -6.796875 9.0234375 C-9 10 -9 10 -11.46484375 9.38671875 C-14.13040922 7.92866676 -16.43395171 6.32692725 -18.8125 4.4375 C-19.60269531 3.81746094 -20.39289062 3.19742188 -21.20703125 2.55859375 C-22.09455078 1.78708984 -22.09455078 1.78708984 -23 1 C-23 0.67 -23 0.34 -23 0 C-7.25512528 -1.33257403 -7.25512528 -1.33257403 0 0 Z " fill="#F7F1F0" transform="translate(84,121)"/>
<path d="M0 0 C6.46494197 0.36901974 10.00861333 1.78930966 15.0625 5.75 C15.92198242 6.39582031 15.92198242 6.39582031 16.79882812 7.0546875 C19.15912987 8.82823257 21.50979224 10.60905816 23.81811523 12.44995117 C27.36395029 15.22437038 27.36395029 15.22437038 31.65234375 16.26953125 C32.40644531 16.11871094 33.16054687 15.96789062 33.9375 15.8125 C35.09572266 15.60560547 35.09572266 15.60560547 36.27734375 15.39453125 C36.84582031 15.26433594 37.41429687 15.13414062 38 15 C38 15.66 38 16.32 38 17 C32.9347079 21.02920962 32.9347079 21.02920962 30 20.9375 C27.30492208 19.67418223 24.63803145 18.37897099 22 17 C22 16.34 22 15.68 22 15 C20.02 14.34 18.04 13.68 16 13 C16 12.34 16 11.68 16 11 C14.94232422 10.63068359 14.94232422 10.63068359 13.86328125 10.25390625 C10.6167878 8.83218129 8.03770207 7.03985789 5.1875 4.9375 C4.21167969 4.22464844 3.23585937 3.51179688 2.23046875 2.77734375 C1.49441406 2.19082031 0.75835937 1.60429688 0 1 C0 0.67 0 0.34 0 0 Z " fill="#68AD7D" transform="translate(44,121)"/>
<path d="M0 0 C0.99 2.97 1.98 5.94 3 9 C-2.79051559 12.09725252 -7.27480444 13.14126742 -13.8125 13.0625 C-15.27623047 13.04896484 -15.27623047 13.04896484 -16.76953125 13.03515625 C-17.87361328 13.01775391 -17.87361328 13.01775391 -19 13 C-18 10 -18 10 -15.92578125 8.7890625 C-15.06339844 8.40492187 -14.20101562 8.02078125 -13.3125 7.625 C-10.0265233 6.07838149 -7.2348438 4.58303315 -4.5 2.1875 C-2 0 -2 0 0 0 Z " fill="#4C9B5B" transform="translate(97,86)"/>
<path d="M0 0 C0.66 0 1.32 0 2 0 C2.33 1.65 2.66 3.3 3 5 C4.60463449 4.68991116 6.20869231 4.37683713 7.8125 4.0625 C8.70582031 3.88847656 9.59914063 3.71445312 10.51953125 3.53515625 C13.11397171 3.02258847 13.11397171 3.02258847 16 2 C16 3.32 16 4.64 16 6 C12.04 6 8.08 6 4 6 C4 6.66 4 7.32 4 8 C7.63 8 11.26 8 15 8 C15.33 8.66 15.66 9.32 16 10 C12.04 9.67 8.08 9.34 4 9 C4 9.66 4 10.32 4 11 C4.62648438 10.97679688 5.25296875 10.95359375 5.8984375 10.9296875 C6.71570313 10.91164063 7.53296875 10.89359375 8.375 10.875 C9.18710938 10.85179688 9.99921875 10.82859375 10.8359375 10.8046875 C13 11 13 11 15 13 C14.67 13.66 14.34 14.32 14 15 C14.66 15.33 15.32 15.66 16 16 C16 16.66 16 17.32 16 18 C12.04 17.01 8.08 16.02 4 15 C3.67 15.66 3.34 16.32 3 17 C2.67 16.34 2.34 15.68 2 15 C1.34 15.99 0.68 16.98 0 18 C0 12.06 0 6.12 0 0 Z " fill="#CCCBCB" transform="translate(72,59)"/>
<path d="M0 0 C2.73306029 2.73306029 2.27381961 4.2746666 2.31884766 8.10205078 C2.33871735 9.38322784 2.35858704 10.66440491 2.37905884 11.98440552 C2.39093617 13.38803942 2.40259898 14.79167516 2.4140625 16.1953125 C2.43276692 17.62736131 2.45233978 19.05939902 2.4727478 20.49142456 C2.52415206 24.26264917 2.56373311 28.03390955 2.60089111 31.80529785 C2.640879 35.65284126 2.69199504 39.50023483 2.7421875 43.34765625 C2.83904487 50.89833483 2.92341795 58.44908568 3 66 C2.01 66.495 2.01 66.495 1 67 C-0.10135545 63.69593365 -0.12036063 61.26356307 -0.11352539 57.78442383 C-0.11341209 55.86277153 -0.11341209 55.86277153 -0.11329651 53.90229797 C-0.10818987 52.50387534 -0.10297387 51.1054531 -0.09765625 49.70703125 C-0.09579089 48.27642364 -0.09436754 46.84581539 -0.09336853 45.41520691 C-0.08955267 41.65213249 -0.07973032 37.88909675 -0.06866455 34.1260376 C-0.05843043 30.28520226 -0.05386662 26.44436067 -0.04882812 22.60351562 C-0.03810722 15.0689928 -0.02104196 7.53450182 0 0 Z " fill="#BA3B3B" transform="translate(23,22)"/>
<path d="M0 0 C1.77074917 -0.02705729 3.54161711 -0.04642195 5.3125 -0.0625 C6.29863281 -0.07410156 7.28476563 -0.08570313 8.30078125 -0.09765625 C11 0 11 0 14 1 C14 9.91 14 18.82 14 28 C12.68 27.67 11.36 27.34 10 27 C10.99 27 11.98 27 13 27 C12.67 20.07 12.34 13.14 12 6 C9.43106162 4.71553081 7.23423663 4.67022856 4.375 4.4375 C2.87066406 4.31181641 2.87066406 4.31181641 1.3359375 4.18359375 C0.56507812 4.12300781 -0.20578125 4.06242187 -1 4 C-1 3.34 -1 2.68 -1 2 C2.63 2 6.26 2 10 2 C6.7 1.67 3.4 1.34 0 1 C0 0.67 0 0.34 0 0 Z M-2 5 C-0.20866022 4.94608007 1.58313899 4.90724429 3.375 4.875 C4.37273437 4.85179687 5.37046875 4.82859375 6.3984375 4.8046875 C9 5 9 5 11 7 C10.01 8.485 10.01 8.485 9 10 C6.3984375 10.51171875 6.3984375 10.51171875 3.375 10.6875 C1.87066406 10.78611328 1.87066406 10.78611328 0.3359375 10.88671875 C-0.82035156 10.94279297 -0.82035156 10.94279297 -2 11 C-2 9.02 -2 7.04 -2 5 Z " fill="#F6EAE7" transform="translate(77,53)"/>
<path d="M0 0 C3.62361776 1.46049953 5.10395257 3.26429967 7.3125 6.4375 C11.49863669 11.91535887 16.44068107 15.56070246 22.0715332 19.41967773 C23.74297469 20.57269516 25.37555359 21.78166519 27 23 C27 23.66 27 24.32 27 25 C16.89933731 22.66907784 8.61918692 16.10595225 2.41015625 7.8984375 C0.74887779 5.1197867 0 3.26486046 0 0 Z " fill="#5DA46F" transform="translate(23,98)"/>
<path d="M0 0 C0.66 0.33 1.32 0.66 2 1 C-3.15026214 5.26268862 -7.78887804 8.54143089 -14 11 C-14.33 11.66 -14.66 12.32 -15 13 C-7.08 12.505 -7.08 12.505 1 12 C-1 14 -1 14 -3.52197266 14.22705078 C-4.5588623 14.21657715 -5.59575195 14.20610352 -6.6640625 14.1953125 C-7.78554687 14.18886719 -8.90703125 14.18242188 -10.0625 14.17578125 C-11.238125 14.15902344 -12.41375 14.14226562 -13.625 14.125 C-14.80835937 14.11597656 -15.99171875 14.10695313 -17.2109375 14.09765625 C-20.14082523 14.07402812 -23.0703134 14.04108514 -26 14 C-25.34 13.67 -24.68 13.34 -24 13 C-24 12.01 -24 11.02 -24 10 C-24.928125 9.896875 -25.85625 9.79375 -26.8125 9.6875 C-30.14965236 8.96772204 -30.83186532 8.42857128 -33 6 C-31.92621094 6.15597656 -30.85242187 6.31195313 -29.74609375 6.47265625 C-28.30996454 6.66977202 -26.87376259 6.86635841 -25.4375 7.0625 C-24.73302734 7.16626953 -24.02855469 7.27003906 -23.30273438 7.37695312 C-16.03715539 8.34792912 -10.59957955 7.9859846 -4.5625 3.4375 C-3.26505859 2.47650391 -3.26505859 2.47650391 -1.94140625 1.49609375 C-0.98041016 0.75552734 -0.98041016 0.75552734 0 0 Z " fill="#C2C8B1" transform="translate(93,86)"/>
<path d="M0 0 C1.91619141 0.24556641 1.91619141 0.24556641 3.87109375 0.49609375 C8.94968256 1.0603814 13.95796735 1.11398093 19.0625 1.0625 C19.92810547 1.05798828 20.79371094 1.05347656 21.68554688 1.04882812 C23.79039539 1.03719913 25.89520758 1.01927073 28 1 C28 1.99 28 2.98 28 4 C23.18523759 6.90844803 19.41856121 7.34582879 13.9375 6.875 C12.89625977 6.82085937 12.89625977 6.82085937 11.83398438 6.765625 C7.50201792 6.45296645 4.427641 5.70841954 1 3 C0.67 2.01 0.34 1.02 0 0 Z " fill="#D33B36" transform="translate(58,88)"/>
<path d="M0 0 C0.66 1.32 1.32 2.64 2 4 C2.66 3.34 3.32 2.68 4 2 C2.21975717 12.2691902 -2.17890375 21.04791444 -10 28 C-12.0088892 29.32510239 -13.73560095 30.15085036 -16 31 C-16.99 30.34 -17.98 29.68 -19 29 C-18.41992188 28.5875 -17.83984375 28.175 -17.2421875 27.75 C-8.04143867 20.94812627 -2.53312186 13.804984 -0.3125 2.5 C-0.209375 1.675 -0.10625 0.85 0 0 Z " fill="#CB5050" transform="translate(120,82)"/>
<path d="M0 0 C2.39591038 -0.02712351 4.79150957 -0.0468982 7.1875 -0.0625 C7.86103516 -0.07087891 8.53457031 -0.07925781 9.22851562 -0.08789062 C12.95434131 -0.10606538 16.3788042 0.10700608 20 1 C20 1.66 20 2.32 20 3 C10.66608123 6.91828674 3.25569666 8.76662184 -7 8 C-7.33 7.01 -7.66 6.02 -8 5 C-2.49983036 3.69732824 2.47032059 4.28966569 8 5 C8 3.68 8 2.36 8 1 C6.35 1 4.7 1 3 1 C2.67 1.99 2.34 2.98 2 4 C2 3.01 2 2.02 2 1 C1.34 0.67 0.68 0.34 0 0 Z " fill="#F7EDEC" transform="translate(74,82)"/>
<path d="M0 0 C1.32 0 2.64 0 4 0 C4.33 9.24 4.66 18.48 5 28 C3.35 28 1.7 28 0 28 C0 18.76 0 9.52 0 0 Z " fill="#D53835" transform="translate(50,54)"/>
<path d="M0 0 C0.66 0.33 1.32 0.66 2 1 C-2.37824067 10.98238873 -8.83768466 16.32809051 -18 22 C-18 20.68 -18 19.36 -18 18 C-17.34 18 -16.68 18 -16 18 C-15.67 17.01 -15.34 16.02 -15 15 C-16.65 14.67 -18.3 14.34 -20 14 C-20 13.34 -20 12.68 -20 12 C-19.443125 11.92523438 -18.88625 11.85046875 -18.3125 11.7734375 C-12.00312499 10.68634924 -7.66466756 8.39619749 -3 4 C-2.34 3.01 -1.68 2.02 -1 1 C-0.67 0.67 -0.34 0.34 0 0 Z " fill="#F6EDE7" transform="translate(116,92)"/>
<path d="M0 0 C11.55 0.66 23.1 1.32 35 2 C35 2.33 35 2.66 35 3 C31.37 3 27.74 3 24 3 C24.95865509 5.33075929 24.95865509 5.33075929 28 7 C24.68120705 6.5444794 21.3995137 6.0868508 18.125 5.375 C17.42375 5.25125 16.7225 5.1275 16 5 C15.67 5.33 15.34 5.66 15 6 C9.23197002 6.70628939 6.15238815 5.28745396 1.50390625 2.19140625 C1.00761719 1.79824219 0.51132812 1.40507813 0 1 C0 0.67 0 0.34 0 0 Z " fill="#BE504D" transform="translate(36,99)"/>
<path d="M0 0 C0.33 0 0.66 0 1 0 C1 3.63 1 7.26 1 11 C1.99 10.67 2.98 10.34 4 10 C4 9.34 4 8.68 4 8 C11.51294612 7.63051085 11.51294612 7.63051085 13.8125 9.375 C14.204375 9.91125 14.59625 10.4475 15 11 C15.99 11.66 16.98 12.32 18 13 C14.92125123 14.53937439 11.73263303 14.00296786 8.3671875 13.87890625 C7.23943405 13.84348976 7.23943405 13.84348976 6.08889771 13.80735779 C3.68407434 13.7306938 1.27957082 13.64668156 -1.125 13.5625 C-2.75389052 13.50928203 -4.38279672 13.45654161 -6.01171875 13.40429688 C-10.0080156 13.27507502 -14.00404092 13.13926173 -18 13 C-14.36804504 10.57869669 -12.61650652 10.78977215 -8.3125 10.875 C-7.13300781 10.89304687 -5.95351562 10.91109375 -4.73828125 10.9296875 C-3.38283203 10.96449219 -3.38283203 10.96449219 -2 11 C-1.34 7.37 -0.68 3.74 0 0 Z " fill="#CD9D9A" transform="translate(73,69)"/>
<path d="M0 0 C0.33 1.98 0.66 3.96 1 6 C0.34 6 -0.32 6 -1 6 C-1.33 6.99 -1.66 7.98 -2 9 C-2 8.34 -2 7.68 -2 7 C-3.65 6.67 -5.3 6.34 -7 6 C-7 6.99 -7 7.98 -7 9 C-9.96175123 8.38722388 -11.38058783 7.74627478 -14 6 C-14 5.01 -14 4.02 -14 3 C-12.35 3 -10.7 3 -9 3 C-9 2.01 -9 1.02 -9 0 C-5.67465243 -1.10844919 -3.37817425 -0.84454356 0 0 Z " fill="#F7F3F3" transform="translate(67,111)"/>
<path d="M0 0 C1.9375 0.5625 1.9375 0.5625 4 2 C4.40729228 4.32156597 4.74438677 6.6568787 5 9 C5.66 9.33 6.32 9.66 7 10 C7 12.64 7 15.28 7 18 C5.02 18.99 5.02 18.99 3 20 C2.67 17.69 2.34 15.38 2 13 C1.01 13.99 0.02 14.98 -1 16 C-0.87431641 14.82630859 -0.87431641 14.82630859 -0.74609375 13.62890625 C-0.64425781 12.61699219 -0.54242188 11.60507812 -0.4375 10.5625 C-0.33308594 9.55316406 -0.22867188 8.54382813 -0.12109375 7.50390625 C-0.08113281 6.67761719 -0.04117188 5.85132813 0 5 C-0.33 4.67 -0.66 4.34 -1 4 C-0.5625 1.9375 -0.5625 1.9375 0 0 Z " fill="#DDA6A2" transform="translate(71,31)"/>
<path d="M0 0 C0.66 0 1.32 0 2 0 C2 0.66 2 1.32 2 2 C2.99 2.33 3.98 2.66 5 3 C5.33 3.99 5.66 4.98 6 6 C8.50447516 7.21869929 8.50447516 7.21869929 11 8 C10.34 8.66 9.68 9.32 9 10 C14.70670775 13.72682955 18.53613957 14.91566368 25.4375 13.5 C25.953125 13.335 26.46875 13.17 27 13 C24.99890887 15.7515003 23.07000005 16.34677418 19.875 17.0625 C17.956875 17.5265625 17.956875 17.5265625 16 18 C15.67 18.66 15.34 19.32 15 20 C8.81329778 14.24576628 3.39371442 8.84126647 0 1 C0 0.67 0 0.34 0 0 Z " fill="#F8E9E9" transform="translate(28,90)"/>
<path d="M0 0 C0.66 0.33 1.32 0.66 2 1 C-6.88461538 8.82692308 -6.88461538 8.82692308 -13.375 9.1875 C-14.674375 9.0946875 -14.674375 9.0946875 -16 9 C-16.33 8.34 -16.66 7.68 -17 7 C-21.455 7.495 -21.455 7.495 -26 8 C-26.33 7.34 -26.66 6.68 -27 6 C-24.87790224 5.30359327 -22.75221473 4.61811643 -20.625 3.9375 C-18.84996094 3.36322266 -18.84996094 3.36322266 -17.0390625 2.77734375 C-14 2 -14 2 -12 3 C-12.99 4.485 -12.99 4.485 -14 6 C-12.2273959 5.38003999 -10.45697333 4.75384007 -8.6875 4.125 C-7.70136719 3.77695313 -6.71523437 3.42890625 -5.69921875 3.0703125 C-2.84405623 2.04694076 -2.84405623 2.04694076 0 0 Z " fill="#C84744" transform="translate(112,95)"/>
<path d="M0 0 C4.29 0.33 8.58 0.66 13 1 C12.34 2.98 11.68 4.96 11 7 C5.06 7.495 5.06 7.495 -1 8 C-1 2 -1 2 0 0 Z " fill="#DDDBDA" transform="translate(56,52)"/>
<path d="M0 0 C2 0 2 0 4.375 2.3125 C5.24125 3.199375 6.1075 4.08625 7 5 C7.763125 5.53625 8.52625 6.0725 9.3125 6.625 C9.869375 7.07875 10.42625 7.5325 11 8 C11 8.99 11 9.98 11 11 C9.56163249 10.88541307 8.12429034 10.75790884 6.6875 10.625 C5.48673828 10.52058594 5.48673828 10.52058594 4.26171875 10.4140625 C2 10 2 10 -1 8 C-0.67 5.36 -0.34 2.72 0 0 Z " fill="#549D60" transform="translate(34,88)"/>
<path d="M0 0 C0.99 0.66 1.98 1.32 3 2 C3 4.1875 3 4.1875 2 7 C-0.45035935 9.08225604 -3.01953584 10.78230063 -6 12 C-6.99 11.67 -7.98 11.34 -9 11 C-8.09985829 6.69932292 -6.90171303 4.6115108 -3.375 2.125 C-2.26125 1.42375 -1.1475 0.7225 0 0 Z " fill="#4E9B5B" transform="translate(110,87)"/>
<path d="M0 0 C0.33 0 0.66 0 1 0 C1 8.91 1 17.82 1 27 C1.66 27 2.32 27 3 27 C4 28 5 29 6 30 C7.051875 30.433125 7.051875 30.433125 8.125 30.875 C10 32 10 32 10.75 34.625 C10.87375 35.800625 10.87375 35.800625 11 37 C6.56029258 35.60466338 4.09484321 33.43871468 1 30 C-0.40912096 27.18175808 -0.11183553 24.82748718 -0.09765625 21.6796875 C-0.09443359 20.42285156 -0.09121094 19.16601562 -0.08789062 17.87109375 C-0.07951172 16.55238281 -0.07113281 15.23367187 -0.0625 13.875 C-0.05748489 12.53515789 -0.05292201 11.195314 -0.04882812 9.85546875 C-0.03701086 6.57026794 -0.02053617 3.28515603 0 0 Z " fill="#D2B6B1" transform="translate(49,55)"/>
<path d="M0 0 C8.58 0 17.16 0 26 0 C25.67 0.99 25.34 1.98 25 3 C16.66666667 3 8.33333333 3 0 3 C0 2.01 0 1.02 0 0 Z " fill="#B0B3B3" transform="translate(57,108)"/>
<path d="M0 0 C6.27 0 12.54 0 19 0 C19 0.33 19 0.66 19 1 C16.36 1 13.72 1 11 1 C11 2.32 11 3.64 11 5 C11.66 5.33 12.32 5.66 13 6 C7.36529617 6.5497272 4.61012242 4.95047835 0 2 C0 1.34 0 0.68 0 0 Z " fill="#F6EEED" transform="translate(52,82)"/>
<path d="M0 0 C2.31 0.66 4.62 1.32 7 2 C6.67 3.98 6.34 5.96 6 8 C5.01 8 4.02 8 3 8 C3 12.62 3 17.24 3 22 C2.67 22 2.34 22 2 22 C1.67 15.73 1.34 9.46 1 3 C-2.63 3 -6.26 3 -10 3 C-10 2.67 -10 2.34 -10 2 C-6.7 2 -3.4 2 0 2 C0 1.34 0 0.68 0 0 Z " fill="#DA9FA1" transform="translate(68,50)"/>
<path d="M0 0 C0.33 0 0.66 0 1 0 C1.268125 1.175625 1.53625 2.35125 1.8125 3.5625 C2.81447119 7.60642688 4.2659924 11.2167107 6 15 C5.34 15 4.68 15 4 15 C4.33 16.32 4.66 17.64 5 19 C4.34 19 3.68 19 3 19 C1.96728358 16.90163996 0.94916283 14.79609109 -0.0625 12.6875 C-0.63097656 11.51574219 -1.19945313 10.34398438 -1.78515625 9.13671875 C-3 6 -3 6 -2 3 C-1.34 3 -0.68 3 0 3 C0 2.01 0 1.02 0 0 Z " fill="#68AC7B" transform="translate(19,83)"/>
<path d="M0 0 C3.67056937 1.47797262 5.41085783 3.47615477 7.75 6.625 C8.67039062 7.85089844 8.67039062 7.85089844 9.609375 9.1015625 C10.29773438 10.04128906 10.29773438 10.04128906 11 11 C10.34 12.32 9.68 13.64 9 15 C0 5.77448747 0 5.77448747 0 0 Z " fill="#71AF81" transform="translate(23,98)"/>
<path d="M0 0 C-0.66 0 -1.32 0 -2 0 C-2 0.66 -2 1.32 -2 2 C-1.01 2 -0.02 2 1 2 C1 3.32 1 4.64 1 6 C-0.32 6 -1.64 6 -3 6 C-3 5.01 -3 4.02 -3 3 C-3.65226562 3.09539062 -4.30453125 3.19078125 -4.9765625 3.2890625 C-10.21513193 3.95354181 -14.04226816 4.21793267 -19 2 C-19 1.67 -19 1.34 -19 1 C-17.64455078 0.90912109 -17.64455078 0.90912109 -16.26171875 0.81640625 C-14.49248047 0.69072266 -14.49248047 0.69072266 -12.6875 0.5625 C-10.92986328 0.44068359 -10.92986328 0.44068359 -9.13671875 0.31640625 C-1.39388145 -0.46462715 -1.39388145 -0.46462715 0 0 Z " fill="#DEDCDA" transform="translate(86,105)"/>
<path d="M0 0 C5.5 5.5 5.5 5.5 7 10 C6.65619247 13.42781235 5.91155704 16.68167006 5 20 C4.67 20 4.34 20 4 20 C4 17.69 4 15.38 4 13 C3.01 12.67 2.02 12.34 1 12 C0.67 8.04 0.34 4.08 0 0 Z " fill="#DC888F" transform="translate(74,28)"/>
<path d="M0 0 C1.0528418 0.14985352 1.0528418 0.14985352 2.12695312 0.30273438 C3.85636527 0.54979325 5.5845627 0.80532852 7.3125 1.0625 C3.71787669 3.32248595 0.74654325 3.27118087 -3.4375 3.1875 C-4.60796875 3.16945313 -5.7784375 3.15140625 -6.984375 3.1328125 C-8.32242188 3.09800781 -8.32242188 3.09800781 -9.6875 3.0625 C-10.0175 2.0725 -10.3475 1.0825 -10.6875 0.0625 C-6.90794143 -1.19735286 -3.84326548 -0.57774579 0 0 Z " fill="#EEDAD7" transform="translate(76.6875,86.9375)"/>
<path d="M0 0 C5.55140187 -0.12616822 5.55140187 -0.12616822 8 0.5625 C10.81971331 1.17931229 13.20249803 0.57221631 16 0 C16 0.66 16 1.32 16 2 C10.9347079 6.02920962 10.9347079 6.02920962 8 5.9375 C5.30492208 4.67418223 2.63803145 3.37897099 0 2 C0 1.34 0 0.68 0 0 Z " fill="#7EB989" transform="translate(66,136)"/>
<path d="M0 0 C0.763125 0.495 1.52625 0.99 2.3125 1.5 C4.92363751 3.24368308 4.92363751 3.24368308 8 3 C8 3.99 8 4.98 8 6 C7.34 6 6.68 6 6 6 C5.67 7.32 5.34 8.64 5 10 C5 9.34 5 8.68 5 8 C3.02 8 1.04 8 -1 8 C-0.67 7.34 -0.34 6.68 0 6 C0.039992 4.00039988 0.04346799 1.99952758 0 0 Z " fill="#D0D1CE" transform="translate(67,110)"/>
<path d="M0 0 C-1.17403506 3.34148439 -2.15434834 5.81103718 -5 8 C-7.0625 8.8125 -7.0625 8.8125 -9 9 C-9.66 8.34 -10.32 7.68 -11 7 C-9.73742767 5.82439821 -8.46462916 4.65977135 -7.1875 3.5 C-6.12595703 2.52546875 -6.12595703 2.52546875 -5.04296875 1.53125 C-3 0 -3 0 0 0 Z " fill="#61A674" transform="translate(119,106)"/>
<path d="M0 0 C0.66 0.33 1.32 0.66 2 1 C1.40606618 2.29640378 0.79942011 3.58698839 0.1875 4.875 C-0.14894531 5.59429687 -0.48539063 6.31359375 -0.83203125 7.0546875 C-2 9 -2 9 -5 11 C-7.6875 10.625 -7.6875 10.625 -10 10 C-9.2575 9.443125 -8.515 8.88625 -7.75 8.3125 C-5.07881841 6.06627912 -3.09904024 3.77373174 -1 1 C-0.67 0.67 -0.34 0.34 0 0 Z " fill="#F5DEE4" transform="translate(116,92)"/>
<path d="M0 0 C0 1.32 0 2.64 0 4 C-1.60407328 4.02708567 -3.2082785 4.04643483 -4.8125 4.0625 C-6.15248047 4.07990234 -6.15248047 4.07990234 -7.51953125 4.09765625 C-10 4 -10 4 -13 3 C-13 2.34 -13 1.68 -13 1 C-8.60563789 0.14256349 -4.47427924 -0.08948558 0 0 Z " fill="#DBB6B8" transform="translate(82,83)"/>
<path d="M0 0 C7.31060606 0.48737374 7.31060606 0.48737374 10.4375 2.8125 C11.96729184 4.95420858 12.63075651 6.41529556 13 9 C7.97290493 7.42903279 3.97133531 4.38006951 0 1 C0 0.67 0 0.34 0 0 Z " fill="#7EBC91" transform="translate(44,121)"/>
<path d="M0 0 C2.97 0 5.94 0 9 0 C9 0.66 9 1.32 9 2 C3.87080814 4.10428384 -0.5610835 4.21755666 -6 4 C-6 3.34 -6 2.68 -6 2 C-4.35 2 -2.7 2 -1 2 C-0.67 1.34 -0.34 0.68 0 0 Z " fill="#D34241" transform="translate(77,102)"/>
<path d="M0 0 C3.63 0.33 7.26 0.66 11 1 C10.67 1.99 10.34 2.98 10 4 C11.65 4.33 13.3 4.66 15 5 C15 5.33 15 5.66 15 6 C8.6902455 6.65726609 4.95810778 4.92785162 0 1 C0 0.67 0 0.34 0 0 Z " fill="#C95857" transform="translate(36,99)"/>
<path d="M0 0 C0.66 0 1.32 0 2 0 C2.84619872 5.0771923 3.34335442 9.84968375 3 15 C2.01 15.99 1.02 16.98 0 18 C0 12.06 0 6.12 0 0 Z " fill="#E2BAB7" transform="translate(72,59)"/>
<path d="M0 0 C0.33 0.66 0.66 1.32 1 2 C4.3 2 7.6 2 11 2 C11 2.99 11 3.98 11 5 C7.37 5.33 3.74 5.66 0 6 C0 4.02 0 2.04 0 0 Z " fill="#E6DADF" transform="translate(75,58)"/>
<path d="M0 0 C-1.56961447 3.13922893 -4.01002218 4.2750128 -7 6 C-9.875 6.25 -9.875 6.25 -12 6 C-12 5.01 -12 4.02 -12 3 C-4.71428571 -0.42857143 -4.71428571 -0.42857143 0 0 Z " fill="#BE988D" transform="translate(112,86)"/>
<path d="M0 0 C2.64 0.33 5.28 0.66 8 1 C5.11912454 3.40072955 2.43595166 5.47291037 -1 7 C-2 4 -2 4 -1.0625 1.8125 C-0.5365625 0.9153125 -0.5365625 0.9153125 0 0 Z " fill="#F7E9E7" transform="translate(90,113)"/>
<path d="M0 0 C-1 2.5 -1 2.5 -3 5 C-5.79374292 5.46837899 -8.14221036 5.23424505 -11 5 C-11 4.34 -11 3.68 -11 3 C-3.71428571 -1.85714286 -3.71428571 -1.85714286 0 0 Z " fill="#F7FBFD" transform="translate(55,105)"/>
<path d="M0 0 C2.64 0.33 5.28 0.66 8 1 C7.0409375 1.433125 7.0409375 1.433125 6.0625 1.875 C3.84793921 2.82823451 3.84793921 2.82823451 3 5 C5.97 5 8.94 5 12 5 C12 5.33 12 5.66 12 6 C8.04 6 4.08 6 0 6 C0 4.02 0 2.04 0 0 Z " fill="#EAE5E5" transform="translate(74,74)"/>
<path d="M0 0 C0.33 0 0.66 0 1 0 C1.08133791 1.91595968 1.13934367 3.83291932 1.1875 5.75 C1.22230469 6.81734375 1.25710937 7.8846875 1.29296875 8.984375 C0.97082786 12.30027855 0.22851086 13.59016673 -2 16 C-2.20674944 10.21101581 -1.59162079 5.57067277 0 0 Z " fill="#CA3C36" transform="translate(123,72)"/>
<path d="M0 0 C3.96 0 7.92 0 12 0 C10.02 0.99 10.02 0.99 8 2 C7.01 2.66 6.02 3.32 5 4 C2.3125 4.125 2.3125 4.125 0 4 C0 2.68 0 1.36 0 0 Z " fill="#D4CFD1" transform="translate(55,61)"/>
<path d="M0 0 C3.4375 1.1875 3.4375 1.1875 7 3 C7.9375 5.6875 7.9375 5.6875 8 8 C4.67689517 6.83242263 2.16638868 5.85051143 0 3 C0 2.01 0 1.02 0 0 Z " fill="#C4887D" transform="translate(52,84)"/>
<path d="M0 0 C0.66 0.33 1.32 0.66 2 1 C1.67 2.98 1.34 4.96 1 7 C1.99 6.67 2.98 6.34 4 6 C4 6.66 4 7.32 4 8 C3.34 8 2.68 8 2 8 C2 9.65 2 11.3 2 13 C1.34 11.68 0.68 10.36 0 9 C-0.99 9.99 -1.98 10.98 -3 12 C-2.25749403 7.91621717 -1.17076699 3.98060777 0 0 Z " fill="#BA6D71" transform="translate(69,28)"/>
<path d="M0 0 C1.96301592 3.50538557 2.95902388 7.13351728 4 11 C1.5625 10.3125 1.5625 10.3125 -1 9 C-1.8125 6.375 -1.8125 6.375 -2 4 C-1.34 4 -0.68 4 0 4 C0 2.68 0 1.36 0 0 Z " fill="#EAE7DE" transform="translate(22,82)"/>
<path d="M0 0 C3.63 0.66 7.26 1.32 11 2 C11 2.33 11 2.66 11 3 C7.04 3.66 3.08 4.32 -1 5 C-0.67 3.35 -0.34 1.7 0 0 Z " fill="#D1C4C5" transform="translate(56,52)"/>
<path d="M0 0 C2.97 0.495 2.97 0.495 6 1 C6.33 2.32 6.66 3.64 7 5 C6.01 5.33 5.02 5.66 4 6 C4 5.34 4 4.68 4 4 C1.525 3.01 1.525 3.01 -1 2 C-0.67 1.34 -0.34 0.68 0 0 Z " fill="#FBFCFD" transform="translate(82,112)"/>
<path d="M0 0 C0.66 0.33 1.32 0.66 2 1 C-0.95600447 3.49618156 -3.77886965 5.85257977 -7 8 C-7.99 7.67 -8.98 7.34 -10 7 C-10 6.34 -10 5.68 -10 5 C-8.38007835 4.13624104 -6.75388139 3.28424146 -5.125 2.4375 C-4.22007813 1.96183594 -3.31515625 1.48617187 -2.3828125 0.99609375 C-1.20332031 0.50302734 -1.20332031 0.50302734 0 0 Z " fill="#C15856" transform="translate(112,95)"/>
<path d="M0 0 C0.33 0 0.66 0 1 0 C1 2.64 1 5.28 1 8 C-0.98 8.99 -0.98 8.99 -3 10 C-3.33 7.69 -3.66 5.38 -4 3 C-3.34 2.67 -2.68 2.34 -2 2 C-1.67 2.66 -1.34 3.32 -1 4 C-0.67 2.68 -0.34 1.36 0 0 Z " fill="#F5D3CC" transform="translate(77,41)"/>
<path d="M0 0 C0.66 1.32 1.32 2.64 2 4 C2.99 3.01 3.98 2.02 5 1 C4.979375 1.94875 4.95875 2.8975 4.9375 3.875 C4.77448174 6.90666283 4.77448174 6.90666283 6 9 C1.25 8.25 1.25 8.25 -1 6 C-0.625 2.875 -0.625 2.875 0 0 Z " fill="#C36D6F" transform="translate(69,41)"/>
<path d="M0 0 C0.66 0.66 1.32 1.32 2 2 C0.71283353 3.00578589 -0.57988658 4.00446798 -1.875 5 C-2.95394531 5.8353125 -2.95394531 5.8353125 -4.0546875 6.6875 C-6 8 -6 8 -8 8 C-8 7.34 -8 6.68 -8 6 C-8.66 5.67 -9.32 5.34 -10 5 C-5.05 3.515 -5.05 3.515 0 2 C0 1.34 0 0.68 0 0 Z " fill="#C85E59" transform="translate(94,83)"/>
<path d="M0 0 C0.99 0.33 1.98 0.66 3 1 C2.67 1.99 2.34 2.98 2 4 C0.15234375 4.73046875 0.15234375 4.73046875 -2.0625 5.1875 C-2.79597656 5.34605469 -3.52945313 5.50460938 -4.28515625 5.66796875 C-5.13400391 5.83232422 -5.13400391 5.83232422 -6 6 C-6 5.34 -6 4.68 -6 4 C-3.1875 1.8125 -3.1875 1.8125 0 0 Z " fill="#5BA26C" transform="translate(82,132)"/>
<path d="M0 0 C3.48330216 0.64505596 6.09432866 1.98217268 9 4 C9 4.66 9 5.32 9 6 C4.70042176 5.52226908 2.78280018 4.29813355 0 1 C0 0.67 0 0.34 0 0 Z " fill="#CC4341" transform="translate(67,128)"/>
<path d="M0 0 C2.64 0.33 5.28 0.66 8 1 C7.67 2.65 7.34 4.3 7 6 C3.63279613 4.60667426 2.0140476 3.0210714 0 0 Z " fill="#C34349" transform="translate(38,88)"/>
<path d="M0 0 C0.33 0 0.66 0 1 0 C1.21192221 5.19209404 0.5912689 9.126739 -1 14 C-1.33 14 -1.66 14 -2 14 C-2.125 8.25 -2.125 8.25 -1 6 C-1.66 6 -2.32 6 -3 6 C-3 5.34 -3 4.68 -3 4 C-2.34 3.67 -1.68 3.34 -1 3 C-0.67 2.01 -0.34 1.02 0 0 Z " fill="#7DB689" transform="translate(130,78)"/>
<path d="M0 0 C2 1 2 1 3 3 C0.6875 5.0625 0.6875 5.0625 -2 7 C-2.99 6.67 -3.98 6.34 -5 6 C-3.86695008 2.60085025 -2.87481525 1.94745549 0 0 Z " fill="#C75050" transform="translate(80,126)"/>
<path d="M0 0 C3.37503669 1.1858237 5.64722731 2.27573689 8 5 C6.35 5.33 4.7 5.66 3 6 C0 2.25 0 2.25 0 0 Z " fill="#5CA36E" transform="translate(55,126)"/>
<path d="M0 0 C0 0.99 0 1.98 0 3 C-3.63 3 -7.26 3 -11 3 C-11 2.34 -11 1.68 -11 1 C-7.27569643 0.30710631 -3.78916254 -0.11144596 0 0 Z " fill="#BAB4B5" transform="translate(84,117)"/>
<path d="M0 0 C1.9375 0.625 1.9375 0.625 4 2 C4.75 5.125 4.75 5.125 5 8 C3.0625 7.375 3.0625 7.375 1 6 C0.25 2.875 0.25 2.875 0 0 Z " fill="#5DA36E" transform="translate(23,98)"/>
<path d="M0 0 C0.66 0 1.32 0 2 0 C2 0.99 2 1.98 2 3 C2.99 3.33 3.98 3.66 5 4 C4.4375 5.9375 4.4375 5.9375 3 8 C-0.625 8.75 -0.625 8.75 -4 9 C-3.01 8.34 -2.02 7.68 -1 7 C-0.34 6.34 0.32 5.68 1 5 C0.67958603 2.39719432 0.67958603 2.39719432 0 0 Z " fill="#BFD7B6" transform="translate(98,89)"/>
<path d="M0 0 C0.66 0 1.32 0 2 0 C2 0.66 2 1.32 2 2 C2.99 2.33 3.98 2.66 5 3 C5.33 3.99 5.66 4.98 6 6 C8.50447516 7.21869929 8.50447516 7.21869929 11 8 C7.98968256 8.93423645 7.13349732 9.04449911 4 8 C0 2.54180602 0 2.54180602 0 0 Z " fill="#E2D9D1" transform="translate(28,90)"/>
<path d="M0 0 C2.375 0.6875 2.375 0.6875 5 2 C6.3125 4.625 6.3125 4.625 7 7 C5.0625 6.6875 5.0625 6.6875 3 6 C2.67 5.01 2.34 4.02 2 3 C1.34 3 0.68 3 0 3 C-0.33 3.99 -0.66 4.98 -1 6 C-0.67 4.02 -0.34 2.04 0 0 Z " fill="#C2B4A3" transform="translate(34,85)"/>
<path d="M0 0 C3.34249629 0.59687434 5.46436342 1.73603877 8 4 C8 4.66 8 5.32 8 6 C5.61435923 5.42415568 3.33317216 4.77772405 1 4 C0.3125 1.9375 0.3125 1.9375 0 0 Z " fill="#549B67" transform="translate(42,117)"/>
<path d="M0 0 C0.33 0.99 0.66 1.98 1 3 C-4.75 7 -4.75 7 -7 7 C-7 6.01 -7 5.02 -7 4 C-4.69 2.68 -2.38 1.36 0 0 Z " fill="#C6403C" transform="translate(103,111)"/>
<path d="M0 0 C2.14418558 3.21627837 2.67582137 5.19090105 3 9 C2.34 9.66 1.68 10.32 1 11 C-0.98362069 8.08291076 -0.9876191 6.87619096 -0.625 3.25 C-0.41875 2.1775 -0.2125 1.105 0 0 Z " fill="#BF504F" transform="translate(26,85)"/>
<path d="M0 0 C3.37503669 1.1858237 5.64722731 2.27573689 8 5 C6.25 5.6875 6.25 5.6875 4 6 C1.75 4.75 1.75 4.75 0 3 C0 2.01 0 1.02 0 0 Z " fill="#C34841" transform="translate(52,117)"/>
<path d="M0 0 C2.31 1.98 4.62 3.96 7 6 C6.01 6.33 5.02 6.66 4 7 C4 6.34 4 5.68 4 5 C3.01 5.33 2.02 5.66 1 6 C-0.0625 4.125 -0.0625 4.125 -1 2 C-0.67 1.34 -0.34 0.68 0 0 Z " fill="#C25A55" transform="translate(34,101)"/>
<path d="M0 0 C0.33 0.66 0.66 1.32 1 2 C1.66 2 2.32 2 3 2 C1.84826645 4.46800047 0.95216435 6.04783565 -1 8 C-1 7.34 -1 6.68 -1 6 C-1.99 5.67 -2.98 5.34 -4 5 C-2.68 3.35 -1.36 1.7 0 0 Z " fill="#6EB47A" transform="translate(120,100)"/>
<path d="M0 0 C0.33 1.32 0.66 2.64 1 4 C-1.875 4.125 -1.875 4.125 -5 4 C-5.66 3.34 -6.32 2.68 -7 2 C-4 0 -4 0 0 0 Z " fill="#D7382F" transform="translate(51,100)"/>
<path d="M0 0 C0.33 0 0.66 0 1 0 C1.32613618 4.67461851 0.70582788 7.16674383 -2 11 C-2.66 10.34 -3.32 9.68 -4 9 C-2.68 6.03 -1.36 3.06 0 0 Z " fill="#E2D9C8" transform="translate(121,92)"/>
<path d="M0 0 C1.32 0.66 2.64 1.32 4 2 C4.125 4.875 4.125 4.875 4 8 C3.34 8.66 2.68 9.32 2 10 C1.67 8.02 1.34 6.04 1 4 C0.34 4 -0.32 4 -1 4 C-0.67 2.68 -0.34 1.36 0 0 Z " fill="#E9A19D" transform="translate(71,31)"/>
<path d="M0 0 C0.598125 0.20625 1.19625 0.4125 1.8125 0.625 C-3.9375 5.625 -3.9375 5.625 -6.1875 5.625 C-5.875 3.75 -5.875 3.75 -5.1875 1.625 C-2.1875 -0.375 -2.1875 -0.375 0 0 Z " fill="#D9E6DA" transform="translate(96.1875,120.375)"/>
<path d="M0 0 C0.33 0.66 0.66 1.32 1 2 C3.64 2 6.28 2 9 2 C7.35 3.32 5.7 4.64 4 6 C3.67 5.34 3.34 4.68 3 4 C-0.02934491 3.34227572 -0.02934491 3.34227572 -3 3 C-2.01 2.67 -1.02 2.34 0 2 C0 1.34 0 0.68 0 0 Z " fill="#EBDEDD" transform="translate(80,118)"/>
<path d="M0 0 C2.64 0 5.28 0 8 0 C7.67 0.99 7.34 1.98 7 3 C4.69 3 2.38 3 0 3 C0 2.01 0 1.02 0 0 Z " fill="#B7B8BB" transform="translate(75,108)"/>
<path d="M0 0 C1.79133978 -0.05391993 3.58313899 -0.09275571 5.375 -0.125 C6.37273437 -0.14820312 7.37046875 -0.17140625 8.3984375 -0.1953125 C11 0 11 0 13 2 C7.96488101 3.0070238 4.76052962 2.97387813 0 1 C0 0.67 0 0.34 0 0 Z " fill="#ECD9D7" transform="translate(67,106)"/>
<path d="M0 0 C0.99 1.32 1.98 2.64 3 4 C2.01 4.495 2.01 4.495 1 5 C1.33 6.32 1.66 7.64 2 9 C1.34 9 0.68 9 0 9 C-0.99 6.36 -1.98 3.72 -3 1 C-2.01 0.67 -1.02 0.34 0 0 Z " fill="#7BB98E" transform="translate(22,93)"/>
<path d="M0 0 C1.32 1.32 2.64 2.64 4 4 C3.67 4.99 3.34 5.98 3 7 C0.33333333 7 -2.33333333 7 -5 7 C-5 6.67 -5 6.34 -5 6 C-3.35 6 -1.7 6 0 6 C0 4.02 0 2.04 0 0 Z " fill="#E4BCBC" transform="translate(67,45)"/>
<path d="M0 0 C2.29013653 3.4352048 2.17842973 4.985331 2 9 C2.66 9 3.32 9 4 9 C3.67 10.32 3.34 11.64 3 13 C2.34 12.67 1.68 12.34 1 12 C0.5859375 9.27734375 0.5859375 9.27734375 0.375 5.9375 C0.30023438 4.83277344 0.22546875 3.72804688 0.1484375 2.58984375 C0.09945312 1.73519531 0.05046875 0.88054688 0 0 Z " fill="#BD555A" transform="translate(74,28)"/>
<path d="M0 0 C1.98 0 3.96 0 6 0 C6.33 1.65 6.66 3.3 7 5 C3.34683329 3.75023244 2.21934164 3.32901247 0 0 Z " fill="#6EAF85" transform="translate(36,115)"/>
<path d="M0 0 C1.32 0.66 2.64 1.32 4 2 C3.01 2.66 2.02 3.32 1 4 C0.27617533 6.05925139 0.27617533 6.05925139 0 8 C-0.66 8 -1.32 8 -2 8 C-1.125 1.125 -1.125 1.125 0 0 Z " fill="#539D61" transform="translate(49,85)"/>
<path d="M0 0 C3.3 0 6.6 0 10 0 C6.09567131 1.95216435 3.27786748 2.50639991 -1 3 C-0.67 2.01 -0.34 1.02 0 0 Z " fill="#C2BAB8" transform="translate(56,78)"/>
<path d="M0 0 C0.33 1.98 0.66 3.96 1 6 C-1.97 5.505 -1.97 5.505 -5 5 C-5 4.01 -5 3.02 -5 2 C-1.125 0 -1.125 0 0 0 Z " fill="#F8FDFC" transform="translate(67,111)"/>
<path d="M0 0 C0.66 1.32 1.32 2.64 2 4 C2.66 3.34 3.32 2.68 4 2 C3.67 3.65 3.34 5.3 3 7 C1.68 7.33 0.36 7.66 -1 8 C-0.67 5.36 -0.34 2.72 0 0 Z " fill="#D76E6D" transform="translate(120,82)"/>
<path d="M0 0 C2.475 0.99 2.475 0.99 5 2 C5 1.34 5 0.68 5 0 C6.65 0 8.3 0 10 0 C8.875 1.5 8.875 1.5 7 3 C3.8125 3.1875 3.8125 3.1875 1 3 C0.67 2.01 0.34 1.02 0 0 Z " fill="#E9EEE1" transform="translate(97,86)"/>
<path d="M0 0 C0.33 0.66 0.66 1.32 1 2 C2.89533342 2.46523063 2.89533342 2.46523063 5.0625 2.625 C6.361875 2.74875 7.66125 2.8725 9 3 C9 3.33 9 3.66 9 4 C5.7 4 2.4 4 -1 4 C-0.67 2.68 -0.34 1.36 0 0 Z " fill="#CDA6AA" transform="translate(79,49)"/>
<path d="M0 0 C1.98 0 3.96 0 6 0 C6 0.66 6 1.32 6 2 C3.69 3.32 1.38 4.64 -1 6 C-1 5.01 -1 4.02 -1 3 C-0.01 3 0.98 3 2 3 C2 2.34 2 1.68 2 1 C1.34 0.67 0.68 0.34 0 0 Z " fill="#80C18E" transform="translate(106,114)"/>
<path d="M0 0 C0.99 0.33 1.98 0.66 3 1 C-0.03525486 3.02350324 -1.19426202 3.32124018 -4.6875 3.625 C-5.49574219 3.69976562 -6.30398437 3.77453125 -7.13671875 3.8515625 C-7.75160156 3.90054688 -8.36648437 3.94953125 -9 4 C-9.33 3.01 -9.66 2.02 -10 1 C-9.36191406 1.01160156 -8.72382812 1.02320312 -8.06640625 1.03515625 C-7.24011719 1.04417969 -6.41382813 1.05320312 -5.5625 1.0625 C-4.32693359 1.07990234 -4.32693359 1.07990234 -3.06640625 1.09765625 C-1.00836062 1.23267348 -1.00836062 1.23267348 0 0 Z " fill="#F6DCD9" transform="translate(52,103)"/>
<path d="M0 0 C-0.33 0.66 -0.66 1.32 -1 2 C-3.97 2 -6.94 2 -10 2 C-6.16991045 -0.55339303 -4.41711378 -1.47237126 0 0 Z " fill="#EFD4D0" transform="translate(96,102)"/>
<path d="M0 0 C-0.33 0.99 -0.66 1.98 -1 3 C-3.31 3.33 -5.62 3.66 -8 4 C-8.33 3.34 -8.66 2.68 -9 2 C-2.25 0 -2.25 0 0 0 Z " fill="#C25051" transform="translate(94,99)"/>
<path d="M0 0 C0.99 0.33 1.98 0.66 3 1 C1.515 4.465 1.515 4.465 0 8 C-0.33 8 -0.66 8 -1 8 C-1.04241723 5.66705225 -1.04092937 3.33297433 -1 1 C-0.67 0.67 -0.34 0.34 0 0 Z " fill="#E0EFE8" transform="translate(123,88)"/>
<path d="M0 0 C2.625 -0.1875 2.625 -0.1875 5 0 C3.68 1.32 2.36 2.64 1 4 C0.01 3.67 -0.98 3.34 -2 3 C-1.34 2.01 -0.68 1.02 0 0 Z " fill="#C04644" transform="translate(83,124)"/>
<path d="M0 0 C1.65 0 3.3 0 5 0 C4.34 1.32 3.68 2.64 3 4 C2.01 4 1.02 4 0 4 C0 2.68 0 1.36 0 0 Z " fill="#FAFBF4" transform="translate(106,102)"/>
<path d="M0 0 C2.97 0.33 5.94 0.66 9 1 C9 1.33 9 1.66 9 2 C7.35 2 5.7 2 4 2 C4 2.66 4 3.32 4 4 C3.01 3.67 2.02 3.34 1 3 C0.67 2.01 0.34 1.02 0 0 Z " fill="#C64444" transform="translate(58,88)"/>
<path d="M0 0 C2.31 0 4.62 0 7 0 C7 0.66 7 1.32 7 2 C7.66 2.33 8.32 2.66 9 3 C2.25 2.25 2.25 2.25 0 0 Z " fill="#F7DCD6" transform="translate(37,86)"/>
</svg>
